<?xml version="1.0" encoding="UTF-8" standalone="no"?>
<!DOCTYPE svg PUBLIC "-//W3C//DTD SVG 1.1//EN"
 "http://www.w3.org/Graphics/SVG/1.1/DTD/svg11.dtd">
<svg xmlns="http://www.w3.org/2000/svg" height="256px" width="256px"
     viewBox="0 0 256 256" preserveAspectRatio="none">
  <path d="M 0 0 h 256 v 256 h -256 Z" fill="transparent" />
  <path d="M 248 112 a 112 32 20 1 0 0  80
           l   0   0 a  96 32 20 1 1 0 -80   z"
        stroke-width="4" stroke="#008" fill="#8bd" />
  <path d="M 248 96  a 112 32 20 1 0 0  112
           l   0  0  a  96 32 20 1 1 0 -112   z"
        stroke-width="4" stroke="#008" fill="#8bd" />
  <path d="M 248 80  a 112 32 20 1 0 0  144
           l   0  0  a  96 32 20 1 1 0 -144   z"
        stroke-width="4" stroke="#008" fill="#8bd" />
</svg>
