<?xml version="1.0" encoding="UTF-8" standalone="no"?>
<!-- Generator: Adobe Illustrator 15.1.0, SVG Export Plug-In  -->

<svg
   xmlns:inkpad="http://inkpad.envoza.com/svg_extensions"
   xmlns:dc="http://purl.org/dc/elements/1.1/"
   xmlns:cc="http://creativecommons.org/ns#"
   xmlns:rdf="http://www.w3.org/1999/02/22-rdf-syntax-ns#"
   xmlns:svg="http://www.w3.org/2000/svg"
   xmlns="http://www.w3.org/2000/svg"
   xmlns:xlink="http://www.w3.org/1999/xlink"
   xmlns:sodipodi="http://sodipodi.sourceforge.net/DTD/sodipodi-0.dtd"
   xmlns:inkscape="http://www.inkscape.org/namespaces/inkscape"
   version="1.1"
   x="0px"
   y="0px"
   width="750px"
   height="750px"
   viewBox="0.125 0.125 750 750"
   overflow="visible"
   enable-background="new 0.125 0.125 750 750"
   xml:space="preserve"
   id="svg3531"
   inkscape:version="0.92.2 (5c3e80d, 2017-08-06)"
   sodipodi:docname="whiplash-sprites.svg"><metadata
     id="metadata3670"><rdf:RDF><cc:Work
         rdf:about=""><dc:format>image/svg+xml</dc:format><dc:type
           rdf:resource="http://purl.org/dc/dcmitype/StillImage" /></cc:Work></rdf:RDF></metadata><sodipodi:namedview
     pagecolor="#ffffff"
     bordercolor="#666666"
     borderopacity="1"
     objecttolerance="10"
     gridtolerance="10"
     guidetolerance="10"
     inkscape:pageopacity="0"
     inkscape:pageshadow="2"
     inkscape:window-width="3840"
     inkscape:window-height="2031"
     id="namedview3668"
     showgrid="false"
     inkscape:zoom="2.1644524"
     inkscape:cx="590.98162"
     inkscape:cy="381.70545"
     inkscape:window-x="0"
     inkscape:window-y="55"
     inkscape:window-maximized="1"
     inkscape:current-layer="svg3531" /><defs
     id="defs3533"><radialGradient
       id="radialGradient4256"
       gradientUnits="userSpaceOnUse"
       cy="369.5"
       cx="613.15997"
       gradientTransform="matrix(1,0,0,2.6962,0,-626.74)"
       r="45.856998"
       inkscape:collect="always"><stop
         id="stop2053"
         style="stop-color:#dbf906"
         offset="0" /><stop
         id="stop2055"
         style="stop-color:#dbf906;stop-opacity:0"
         offset="1" /></radialGradient><filter
       style="color-interpolation-filters:sRGB"
       id="filter3924"
       height="1.5"
       width="1.5"
       y="-0.25"
       x="-0.25"
       inkscape:label="Drop shadow"><feGaussianBlur
         id="feGaussianBlur3926"
         result="blur"
         stdDeviation="2,000000"
         in="SourceAlpha" /><feColorMatrix
         id="feColorMatrix3928"
         values="1 0 0 0 0 0 1 0 0 0 0 0 1 0 0 0 0 0 0,500000 0 "
         type="matrix"
         result="bluralpha" /><feOffset
         id="feOffset3930"
         result="offsetBlur"
         dy="4,000000"
         dx="4,000000"
         in="bluralpha" /><feMerge
         id="feMerge3932"><feMergeNode
           id="feMergeNode3934"
           in="offsetBlur" /><feMergeNode
           id="feMergeNode3936"
           in="SourceGraphic" /></feMerge></filter><linearGradient
       id="linearGradient3836"
       y2="270.84"
       gradientUnits="userSpaceOnUse"
       x2="477.23999"
       y1="270.84"
       x1="443.73001"
       inkscape:collect="always"><stop
         id="stop3816"
         style="stop-color:#000000"
         offset="0" /><stop
         id="stop3818"
         style="stop-color:#3e3e3e"
         offset="1" /></linearGradient><filter
       style="color-interpolation-filters:sRGB"
       id="filter3884"
       height="1.2436"
       width="1.3319"
       y="-0.12178"
       x="-0.16594"
       inkscape:collect="always"><feGaussianBlur
         id="feGaussianBlur3886"
         stdDeviation="0.87279496"
         inkscape:collect="always" /></filter><filter
       style="color-interpolation-filters:sRGB"
       id="filter3786"
       height="1.8762"
       width="1.0138"
       y="-0.43810999"
       x="-0.0068994001"
       inkscape:collect="always"><feGaussianBlur
         id="feGaussianBlur3788"
         stdDeviation="1.1064029"
         inkscape:collect="always" /></filter><filter
       style="color-interpolation-filters:sRGB"
       id="filter3880"
       inkscape:collect="always"><feGaussianBlur
         id="feGaussianBlur3882"
         stdDeviation="0.10304029"
         inkscape:collect="always" /></filter><filter
       style="color-interpolation-filters:sRGB"
       id="filter3864"
       height="1.0257"
       width="1.375"
       y="-0.012866"
       x="-0.18748"
       inkscape:collect="always"><feGaussianBlur
         id="feGaussianBlur3866"
         stdDeviation="0.48823458"
         inkscape:collect="always" /></filter><filter
       style="color-interpolation-filters:sRGB"
       id="filter3876"
       inkscape:collect="always"><feGaussianBlur
         id="feGaussianBlur3878"
         stdDeviation="0.10675466"
         inkscape:collect="always" /></filter><filter
       style="color-interpolation-filters:sRGB"
       id="filter3872"
       inkscape:collect="always"><feGaussianBlur
         id="feGaussianBlur3874"
         stdDeviation="0.1075012"
         inkscape:collect="always" /></filter><linearGradient
       id="linearGradient6474"
       y2="684.23999"
       xlink:href="#linearGradient6425"
       gradientUnits="userSpaceOnUse"
       x2="61.785999"
       gradientTransform="matrix(2.3,0,0,2.3,614.14,-1139)"
       y1="723.59003"
       x1="61.785999"
       inkscape:collect="always" /><linearGradient
       id="linearGradient6425"
       inkscape:collect="always"><stop
         id="stop6427"
         style="stop-color:#000000"
         offset="0" /><stop
         id="stop6429"
         style="stop-color:#808080"
         offset="1" /></linearGradient><radialGradient
       id="radialGradient5685"
       xlink:href="#linearGradient6462"
       gradientUnits="userSpaceOnUse"
       cy="556.81"
       cx="851.29999"
       gradientTransform="matrix(-0.10551,-0.85579,2.5196,-0.31057,-497.96,1416.7)"
       r="40"
       inkscape:collect="always" /><linearGradient
       id="linearGradient6462"><stop
         id="stop6464"
         style="stop-color:#191919"
         offset="0" /><stop
         id="stop5687"
         style="stop-color:#404040"
         offset="1" /><stop
         id="stop5679"
         style="stop-color:#0f0f0f"
         offset="1" /></linearGradient><linearGradient
       id="linearGradient5419"
       y2="230.38"
       gradientUnits="userSpaceOnUse"
       x2="343.82001"
       y1="677.87"
       x1="435.95001"><stop
         id="stop5383"
         stop-color="#8c3611"
         offset="0" /><stop
         id="stop5385"
         stop-color="#ec081a"
         offset="1" /></linearGradient><linearGradient
       id="linearGradient5421"
       y2="233.98"
       gradientUnits="userSpaceOnUse"
       x2="452.54001"
       y1="347.10999"
       x1="409.12"><stop
         id="stop5393"
         stop-color="#703f06"
         offset="0" /><stop
         id="stop5395"
         stop-color="#621e00"
         offset="1" /></linearGradient><linearGradient
       id="linearGradient5423"
       y2="201.36"
       gradientUnits="userSpaceOnUse"
       x2="158.59"
       y1="288.23001"
       x1="351.64001"><stop
         id="stop5403"
         stop-color="#38822b"
         offset="0" /><stop
         id="stop5405"
         stop-color="#00ce02"
         stop-opacity="0"
         offset="1" /></linearGradient></defs><g
     id="g3625"
     transform="translate(-452.17919,2.723971)"><path
       id="path3535"
       d="m 632.014,71.769 c 0,-14.841 9.335,-27.482 22.446,-32.427 l 0,8.393 15.476,-15.476 -15.476,-15.477 0,8.572 c -20.587,5.407 -35.779,24.13 -35.779,46.414 0,22.485 15.463,41.352 36.333,46.565 l 0,-13.916 c -13.406,-4.791 -23,-17.597 -23,-32.648 z"
       inkscape:connector-curvature="0"
       style="fill:#da1c5c" /><path
       id="path3537"
       d="m 720.047,71.348 c 0,14.841 -9.335,27.482 -22.446,32.427 l 0,-8.393 -15.476,15.476 15.476,15.476 0,-8.572 c 20.587,-5.407 35.779,-24.13 35.779,-46.414 0,-22.485 -15.463,-41.352 -36.333,-46.565 l 0,13.916 c 13.405,4.791 23,17.597 23,32.649 z"
       inkscape:connector-curvature="0"
       style="fill:#ee2a7b" /><g
       id="g3539"><g
         id="g3541"><g
           id="g3543"
           enable-background="new    "><g
             id="g3545"><polygon
               id="polygon3547"
               points="698.578,89.421 679.905,96.12 679.772,62.12 698.444,55.421 "
               style="fill:#7f2e6d" /></g><g
             id="g3549"><polygon
               id="polygon3551"
               points="697.01,86.886 678.338,93.585 678.22,63.647 696.893,56.948 "
               style="fill:#fbab19" /></g><g
             id="g3553"><polygon
               id="polygon3555"
               points="678.338,93.585 678.22,63.647 696.893,56.948 697.01,86.886 "
               style="fill:#7f2e6d" /></g><g
             id="g3557"><polygon
               id="polygon3559"
               points="698.444,55.421 679.772,62.12 653.672,53.69 672.345,46.991 "
               style="fill:#932c61" /></g><g
             id="g3561"><polygon
               id="polygon3563"
               points="678.22,63.647 655.24,56.225 673.912,49.526 696.893,56.948 "
               style="fill:#932c61" /></g><g
             id="g3565"><polygon
               id="polygon3567"
               points="696.893,56.948 678.22,63.647 655.24,56.225 673.912,49.526 "
               style="fill:#f8951d" /></g><g
             id="g3569"><polygon
               id="polygon3571"
               points="697.01,86.886 678.338,93.585 655.357,86.163 674.03,79.464 "
               style="fill:#932c61" /></g><g
             id="g3573"><polygon
               id="polygon3575"
               points="678.338,93.585 655.357,86.163 674.03,79.464 697.01,86.886 "
               style="fill:#f8951d" /></g><g
             id="g3577"><polygon
               id="polygon3579"
               points="655.357,86.163 655.24,56.225 673.912,49.526 674.03,79.464 "
               style="fill:#fbab19" /></g><g
             id="g3581"><polygon
               id="polygon3583"
               points="674.03,79.464 655.357,86.163 655.24,56.225 673.912,49.526 "
               style="fill:#7f2e6d" /></g><g
             id="g3585"><polygon
               id="polygon3587"
               points="679.905,96.12 653.806,87.69 672.478,80.992 698.578,89.421 "
               style="fill:#932c61" /></g><g
             id="g3589"><polygon
               id="polygon3591"
               points="653.806,87.69 653.672,53.69 672.345,46.991 672.478,80.992 "
               style="fill:#7f2e6d" /></g></g></g></g></g><path
     style="fill:#f7941e;stroke:#010101;stroke-width:4.10760021;stroke-miterlimit:10"
     inkscape:connector-curvature="0"
     stroke-miterlimit="10"
     d="m 130.68775,99.559013 6.209,-22.255 -16.56,-9.419 -0.018,0.064 c -0.229,-1.652 -0.55,-3.275 -0.961,-4.861 l 11.874,-14.299 -13.663,-18.63 -17.437,7.123 c -2.348,-1.427 -4.846,-2.632 -7.462,-3.589 l 2.634,0.066 -4.154,-18.595 -23.096,-0.583 -5.088,18.36 2.374,0.061 c -2.886,0.891 -5.639,2.083 -8.228,3.534 l 1.107,-1.249 -16.895,-8.807 -15.329,17.287 10.763,15.721 1.678,-1.895 c -1.133,2.754 -1.988,5.652 -2.527,8.66 l -17.2,7.479 3.797,22.791 18.991,1.52 -0.441,-2.653 c 1.501,2.566 3.26,4.961997 5.244,7.149997 l -4.543,18.24 20.405,10.109 12.762,-14.146 -0.615,-0.311 c 1.209,0.103 2.433,0.158 3.67,0.158 1.373,0 2.732,-0.067 4.073,-0.194 l -0.998,0.517 12.625,14.271 20.503,-10.655 -4.343,-18.191 c 0.938,-1.044 1.82,-2.137 2.651,-3.270997 z"
     id="path3593" /><circle
     style="fill:#ffffff;stroke:#010101;stroke-width:4.27120018;stroke-miterlimit:10"
     stroke-miterlimit="10"
     cx="77.980728"
     cy="73.844009"
     r="19.639"
     id="circle3595" /><path
     style="fill:none;stroke:#010101;stroke-width:4.26170015;stroke-miterlimit:10"
     inkscape:connector-curvature="0"
     stroke-miterlimit="10"
     d="m 101.25175,37.676013 0.356,0.601 c -0.983,-0.713 -2.003,-1.391 -3.065,-2.023 -1.182,-0.704 -2.385,-1.336 -3.607,-1.904 l 1.141,0.031"
     id="path3597" /><path
     style="fill:none;stroke:#010101;stroke-width:4.26170015;stroke-miterlimit:10"
     inkscape:connector-curvature="0"
     stroke-miterlimit="10"
     d="m 120.72575,71.077013 -0.258,0.65 c -0.038,-1.214 -0.128,-2.436 -0.28,-3.663 -0.167,-1.364 -0.406,-2.703 -0.705,-4.017 l 0.674,0.921"
     id="path3599" /><path
     style="fill:none;stroke:#010101;stroke-width:4.26170015;stroke-miterlimit:10"
     inkscape:connector-curvature="0"
     stroke-miterlimit="10"
     d="m 109.75175,102.44301 -0.64,0.282 c 0.825,-0.892 1.617,-1.826 2.37,-2.806997 0.837,-1.091 1.605,-2.212 2.312,-3.358 l -0.163,1.129"
     id="path3601" /><path
     style="fill:none;stroke:#010101;stroke-width:4.53270006;stroke-miterlimit:10"
     inkscape:connector-curvature="0"
     stroke-miterlimit="10"
     d="m 38.41375,58.757013 0.475,-0.567 c -0.356,1.229 -0.666,2.482 -0.914,3.762 -0.276,1.421 -0.473,2.841 -0.597,4.257 l -0.388,-1.145"
     id="path3603" /><path
     style="fill:none;stroke:#010101;stroke-width:4.54659986;stroke-miterlimit:10"
     inkscape:connector-curvature="0"
     stroke-miterlimit="10"
     d="m 42.01275,97.428013 -0.12,-0.73 c 0.699,1.074 1.448,2.124 2.257,3.145 0.898,1.135997 1.852,2.207997 2.845,3.224997 l -1.125,-0.449"
     id="path3605" /><path
     stroke-miterlimit="10"
     d="m 493.72679,39.070014 c 1.999,-5.231 5.045,-7.503 9.286,-6.06 1.9,0.663 5.735,2.4 3.599,8.365 l -11.757,32.149 0.745,0 17.893,-47.376 c 2.868,-8.055 8.702,-6.668 10.226,-6.264 3.005,0.799 5.772,3.597 3.725,9.65 l -15.86,43.032 0.505,0 c 0,0 18.924,-50.895 19.611,-53.302 2.107,-4.851 4.332,-7.131 9.118,-6.23 4.786,0.9 5.934,5.276 5.22,8.504 -1.325,4.827 -17.967,50.07 -17.967,50.07 l 0.616,0 c 0,0 12.914,-35.459 14.135,-38.252 3.21,-7.261 6.421,-11.312 11.451,-9.439 5.939,2.213 4.804,8.894 4.305,10.492 -3.189,10.227 -6.678,15.889 -15.534,41.478 l 0,22.751004 c 0,0 0.208,2.481002 0.719,2.873002 3.495,2.678 12.778,-13.148006 12.778,-13.148006 0,0 -1.243,-4.582 -1.243,-8.404 0,-3.826 1.324,-14.06 8.954,-12.941 3.074,0.45 5.009,2.241 5.009,5.006 l 3.275,18.457 c 0,2.765 -11.19,36.959006 -28.628,43.935006 -3.291,1.315 -35.805,1.012 -42.75,-1.851 -5.16,-2.127 -9.462,-11.431 -11.662,-15.807 -2.199,-4.375 -8.459,-16.159 -9.75,-29.665006 -0.911,-9.504 12.216,-43.393 13.981,-48.023 z"
     id="path3607"
     inkscape:connector-curvature="0"
     style="fill:#00aeef;stroke:#010101;stroke-width:4.29199982;stroke-miterlimit:10" /><path
     stroke-miterlimit="10"
     d="m 702.65686,39.070019 c -1.999,-5.231 -5.045,-7.503 -9.286,-6.06 -1.9,0.663 -5.735,2.4 -3.599,8.365 l 11.757,32.149 -0.745,0 -17.893,-47.376 c -2.868,-8.055 -8.702,-6.668 -10.226,-6.264 -3.005,0.799 -5.772,3.597 -3.725,9.65 l 15.86,43.032 -0.503,0 c 0,0 -18.924,-50.895 -19.612,-53.302 -2.107,-4.851 -4.332,-7.131 -9.118,-6.23 -4.786,0.9 -5.934,5.276 -5.22,8.504 1.325,4.827 17.968,50.07 17.968,50.07 l -0.617,0 c 0,0 -12.913,-35.459 -14.135,-38.252 -3.21,-7.261 -6.421,-11.312 -11.451,-9.439 -5.939,2.213 -4.803,8.894 -4.305,10.492 3.188,10.227 6.677,15.889 15.534,41.478 l 0,22.751 c 0,0 -0.208,2.481001 -0.719,2.873001 -3.495,2.678 -12.778,-13.148001 -12.778,-13.148001 0,0 1.243,-4.582 1.243,-8.404 0,-3.826 -1.324,-14.06 -8.954,-12.941 -3.075,0.45 -5.009,2.241 -5.009,5.006 l -3.276,18.457 c 0,2.765 11.19,36.959001 28.628,43.935001 3.291,1.315 35.805,1.012 42.75,-1.851 5.161,-2.127 9.462,-11.431 11.662,-15.807 2.199,-4.375 8.459,-16.159 9.75,-29.665001 0.911,-9.504 -12.215,-43.393 -13.981,-48.023 z"
     id="path3609"
     inkscape:connector-curvature="0"
     style="fill:#00aeef;stroke:#010101;stroke-width:4.29199982;stroke-miterlimit:10" /><path
     id="handle_1_"
     display="none"
     fill="none"
     stroke="#010101"
     stroke-width="14.3189"
     stroke-miterlimit="10"
     d="  M753.125,493.129c0-13.18-9.617-23.865-21.479-23.865s-21.479,10.685-21.479,23.865" /><g
     id="g3609"
     transform="translate(300.5448,-0.90799088)"><path
       d="M 123.937,49.2 C 121.114,29.439 101.354,12.5 75.946,12.5 l 0,0 0,0 0,0 0,0 c -25.407,0 -45.168,16.938 -47.991,36.7 -2.429,16.999 -2.822,50.814 -2.822,64.929 0,14.115 8.468,22.584 16.938,22.584 l 33.876,0 0,0 33.876,0 c 8.469,0 16.938,-8.469 16.938,-22.584 -0.002,-14.114 -0.395,-47.93 -2.824,-64.929 z"
       stroke-miterlimit="10"
       id="bag_2_"
       inkscape:connector-curvature="0"
       style="fill:#ed1c24;stroke:#010101;stroke-width:3.76399994;stroke-miterlimit:10" /><line
       y2="85.899002"
       x2="109.822"
       y1="85.899002"
       x1="42.07"
       stroke-miterlimit="10"
       id="zipper_2_"
       style="fill:none;stroke:#000000;stroke-width:3.76399994;stroke-miterlimit:10" /><path
       d="m 109.822,116.011 c 0,2.079 -1.685,3.764 -3.764,3.764 l -60.225,0 c -2.079,0 -3.764,-1.685 -3.764,-3.764 l 0,-37.64 c 0,-2.079 1.685,-3.765 3.764,-3.765 l 60.225,0 c 2.079,0 3.764,1.686 3.764,3.765 l 0,37.64 z"
       stroke-miterlimit="10"
       id="pocket_2_"
       inkscape:connector-curvature="0"
       style="fill:none;stroke:#000000;stroke-width:3.76399994;stroke-miterlimit:10" /><circle
       r="5.6459999"
       cy="43.112"
       cx="75.945999"
       stroke-miterlimit="10"
       id="circle_1_"
       style="fill:none;stroke:#000000;stroke-width:3.76399994;stroke-miterlimit:10" /><path
       id="path3616"
       d="m 42.07,56.202 c 0,2.079 1.685,3.765 3.764,3.765 l 60.225,0 c 2.079,0 3.764,-1.686 3.764,-3.765 l 0,-31.595 0,0 C 101.215,17.231 89.37,12.5 75.946,12.5 62.522,12.5 50.677,17.231 42.07,24.607 l 0,0 0,31.595 z"
       stroke-miterlimit="10"
       inkscape:connector-curvature="0"
       style="fill:none;stroke:#010101;stroke-width:3.76399994;stroke-miterlimit:10" /></g><rect
     x="0.125"
     y="0.125"
     fill="none"
     stroke="#000000"
     stroke-width="0.25"
     stroke-miterlimit="10"
     width="150"
     height="150"
     id="rect3618" /><rect
     x="150.125"
     y="0.125"
     fill="none"
     stroke="#000000"
     stroke-width="0.25"
     stroke-miterlimit="10"
     width="150"
     height="150"
     id="rect3620" /><rect
     x="300.125"
     y="0.125"
     fill="none"
     stroke="#000000"
     stroke-width="0.25"
     stroke-miterlimit="10"
     width="150"
     height="150"
     id="rect3622" /><rect
     x="450.125"
     y="0.125"
     stroke-miterlimit="10"
     width="150"
     height="150"
     id="rect3624"
     stroke-width="0.25"
     stroke="#000000"
     fill="none" /><rect
     x="600.125"
     y="0.125"
     fill="none"
     stroke="#000000"
     stroke-width="0.25"
     stroke-miterlimit="10"
     width="150"
     height="150"
     id="rect3626" /><rect
     x="0.125"
     y="150.125"
     fill="none"
     stroke="#000000"
     stroke-width="0.25"
     stroke-miterlimit="10"
     width="150"
     height="150"
     id="rect3628" /><rect
     x="150.125"
     y="150.125"
     fill="none"
     stroke="#000000"
     stroke-width="0.25"
     stroke-miterlimit="10"
     width="150"
     height="150"
     id="rect3630" /><rect
     x="300.125"
     y="150.125"
     fill="none"
     stroke="#000000"
     stroke-width="0.25"
     stroke-miterlimit="10"
     width="150"
     height="150"
     id="rect3632" /><rect
     x="600.125"
     y="150.125"
     fill="none"
     stroke="#000000"
     stroke-width="0.25"
     stroke-miterlimit="10"
     width="150"
     height="150"
     id="rect3636" /><rect
     x="0.125"
     y="300.125"
     fill="none"
     stroke="#000000"
     stroke-width="0.25"
     stroke-miterlimit="10"
     width="150"
     height="150"
     id="rect3638" /><rect
     x="150.125"
     y="300.125"
     fill="none"
     stroke="#000000"
     stroke-width="0.25"
     stroke-miterlimit="10"
     width="150"
     height="150"
     id="rect3640" /><rect
     x="300.125"
     y="300.125"
     fill="none"
     stroke="#000000"
     stroke-width="0.25"
     stroke-miterlimit="10"
     width="150"
     height="150"
     id="rect3642" /><rect
     x="450.125"
     y="300.125"
     fill="none"
     stroke="#000000"
     stroke-width="0.25"
     stroke-miterlimit="10"
     width="150"
     height="150"
     id="rect3644" /><rect
     x="600.125"
     y="300.125"
     fill="none"
     stroke="#000000"
     stroke-width="0.25"
     stroke-miterlimit="10"
     width="150"
     height="150"
     id="rect3646" /><rect
     x="0.125"
     y="450.125"
     fill="none"
     stroke="#000000"
     stroke-width="0.25"
     stroke-miterlimit="10"
     width="150"
     height="150"
     id="rect3648" /><rect
     x="150.125"
     y="450.125"
     fill="none"
     stroke="#000000"
     stroke-width="0.25"
     stroke-miterlimit="10"
     width="150"
     height="150"
     id="rect3650" /><rect
     x="300.125"
     y="450.125"
     fill="none"
     stroke="#000000"
     stroke-width="0.25"
     stroke-miterlimit="10"
     width="150"
     height="150"
     id="rect3652" /><rect
     x="450.125"
     y="450.125"
     fill="none"
     stroke="#000000"
     stroke-width="0.25"
     stroke-miterlimit="10"
     width="150"
     height="150"
     id="rect3654" /><rect
     x="600.125"
     y="450.125"
     fill="none"
     stroke="#000000"
     stroke-width="0.25"
     stroke-miterlimit="10"
     width="150"
     height="150"
     id="rect3656" /><rect
     x="0.125"
     y="600.126"
     fill="none"
     stroke="#000000"
     stroke-width="0.25"
     stroke-miterlimit="10"
     width="150"
     height="150"
     id="rect3658" /><rect
     x="150.125"
     y="600.126"
     fill="none"
     stroke="#000000"
     stroke-width="0.25"
     stroke-miterlimit="10"
     width="150"
     height="150"
     id="rect3660" /><rect
     x="300.125"
     y="600.126"
     fill="none"
     stroke="#000000"
     stroke-width="0.25"
     stroke-miterlimit="10"
     width="150"
     height="150"
     id="rect3662" /><rect
     x="450.125"
     y="600.126"
     fill="none"
     stroke="#000000"
     stroke-width="0.25"
     stroke-miterlimit="10"
     width="150"
     height="150"
     id="rect3664" /><rect
     x="600.125"
     y="600.126"
     fill="none"
     stroke="#000000"
     stroke-width="0.25"
     stroke-miterlimit="10"
     width="150"
     height="150"
     id="rect3666" /><path
     inkscape:connector-curvature="0"
     style="fill:#1e201d"
     d="m 500.31297,167.81066 c 1.86391,-2.26474 4.96608,-2.26474 6.89516,0 1.8639,2.18822 1.8639,5.83017 0,8.01329 l -34.96238,41.04582 115.37108,0 c 2.68941,0.005 4.82704,2.51467 4.82704,5.67204 0,3.15737 -2.13763,5.74856 -4.82704,5.74856 l -115.37108,0 34.96238,40.96931 c 1.8639,2.26473 1.8639,5.91178 0,8.0949 -1.92908,2.26474 -5.03559,2.26474 -6.89516,0 L 457.0738,226.59182 c -1.92908,-2.18823 -1.92908,-5.83017 0,-8.0133 l 43.23917,-50.76786 z"
     id="path3766" /><g
     transform="translate(101.51075,491.94659)"
     id="g3768" /><g
     transform="translate(101.51075,491.94659)"
     id="g3770" /><g
     transform="translate(101.51075,491.94659)"
     id="g3772" /><g
     transform="translate(101.51075,491.94659)"
     id="g3774" /><g
     transform="translate(101.51075,491.94659)"
     id="g3776" /><g
     transform="translate(101.51075,491.94659)"
     id="g3778" /><g
     transform="translate(101.51075,491.94659)"
     id="g3780" /><g
     transform="translate(101.51075,491.94659)"
     id="g3782" /><g
     transform="translate(101.51075,491.94659)"
     id="g3784" /><g
     transform="translate(101.51075,491.94659)"
     id="g3786" /><g
     transform="translate(101.51075,491.94659)"
     id="g3788" /><g
     transform="translate(101.51075,491.94659)"
     id="g3790" /><g
     transform="translate(101.51075,491.94659)"
     id="g3792" /><g
     transform="translate(101.51075,491.94659)"
     id="g3794" /><g
     transform="translate(101.51075,491.94659)"
     id="g3796" /><path
     inkscape:connector-curvature="0"
     style="fill:#1e201d"
     d="m 697.57629,168.71864 c -1.86392,-2.26474 -4.96609,-2.26474 -6.89517,0 -1.8639,2.18822 -1.8639,5.83017 0,8.01329 l 34.96239,41.04582 -115.37108,0 c -2.68941,0.005 -4.82704,2.51467 -4.82704,5.67204 0,3.15737 2.13763,5.74856 4.82704,5.74856 l 115.37108,0 -34.96239,40.96931 c -1.8639,2.26473 -1.8639,5.91178 0,8.0949 1.92908,2.26474 5.03559,2.26474 6.89517,0 l 43.23917,-50.76276 c 1.92908,-2.18823 1.92908,-5.83017 0,-8.0133 l -43.23917,-50.76786 z"
     id="path3766-3" /><g
     id="g3560"
     transform="matrix(0.42670642,-0.14106212,0.14106212,0.42670642,70.981275,636.12874)"><g
       id="g3683"
       transform="matrix(0.31328449,-0.94965932,0.94965932,0.31328449,-84.377329,50.235878)"><path
         style="opacity:1;fill:#f4a300;stroke:#000000;stroke-width:7.59651995;stroke-linecap:round;stroke-linejoin:round"
         inkscape:connector-curvature="0"
         id="path3531"
         d="m -133.45305,11.460671 252,0 0,143.999999 -252,0 0,-143.999999 z" /><path
         style="opacity:1;fill:#000000"
         inkscape:connector-curvature="0"
         id="path3533"
         d="m -98.711047,49.977671 215.999997,0 0,36 -215.999997,0 0,-36 z" /><path
         style="opacity:1;fill:#0895ef"
         inkscape:connector-curvature="0"
         id="path3535-3"
         d="m -28.046047,49.977671 37.3349997,0 0,36 -37.3349997,0 0,-36 z" /><path
         style="opacity:1;fill:#ca82f4"
         inkscape:connector-curvature="0"
         id="path3537-6"
         d="m 15.085953,49.977671 24.33,0 0,36 -24.33,0 0,-36 z" /><path
         style="opacity:1;fill:#c64104"
         inkscape:connector-curvature="0"
         id="path3539"
         d="m 45.288953,49.977671 14.682,0 0,36 -14.682,0 0,-36 z" /><path
         style="opacity:1;fill:#bd6d00"
         inkscape:connector-curvature="0"
         id="path3541"
         d="m 66.606953,49.977671 14.682,0 0,36 -14.682,0 0,-36 z" /><text
         style="font-size:19px;line-height:0%;font-family:HelveticaNeue-Bold;text-anchor:start;opacity:1;fill:#000000"
         id="text3545"
         inkpad:width="150.292"
         font-size="19"
         inkpad:text="|||| || ||||| ||||||||||| ||| ||"
         y="89.84668"
         x="-97.87204"><tspan
           id="tspan3547"
           y="108.84668"
           x="-97.87204"><![CDATA[|||| || ||||| ||||||||||| ||| ||]]></tspan></text>
</g></g><g
     id="g4509"
     mask="none"><path
       style="opacity:1;fill:#5e3f30;stroke:#000000;stroke-width:2.19269252;stroke-linejoin:round;image-rendering:auto"
       inkscape:connector-curvature="0"
       d="m 210.91214,673.06933 -12.12543,10.51404 c -1.95229,4.04049 -4.70212,7.46339 -8.40918,10.53086 -3.04342,2.51812 -5.60022,4.13681 -11.90663,7.80632 -1.27637,0.74257 -1.9052,1.12884 -2.66467,1.58314 l -13.08717,11.17199 7.35972,20.59222 9.07709,-4.9332 c -0.82143,-4.7032 3.35195,-8.08804 7.54826,-7.82052 0.10372,-0.0932 0.15034,-0.12475 0.26209,-0.22599 0.0667,-0.0605 0.0682,-0.0674 0.1353,-0.12828 0.36786,-0.33331 0.60986,-0.52173 0.91378,-0.78791 0.30136,-1.74466 1.13563,-3.28646 2.40543,-4.3701 1.33578,-1.14016 3.05324,-1.76636 4.82752,-1.73758 0.32125,-0.33998 0.64522,-0.70028 0.93917,-0.96236 0.44493,-2.5972 2.25722,-4.63067 4.85209,-5.73003 0.94593,-0.40066 1.97143,-0.61165 3.00419,-0.7277 0.2125,-0.16786 0.4432,-0.35853 0.64798,-0.51186 0.41137,-1.93662 1.39862,-3.70965 2.94831,-4.9904 1.39191,-1.15069 3.06555,-1.79946 4.72372,-1.69493 0.40233,0.0253 0.79062,0.0961 1.16098,0.20524 l 11.26056,-11.69358 -13.87311,-16.08937 z"
       id="path3522" /><path
       style="opacity:1;fill:#b8b8b8;stroke:#000000;stroke-width:4.28192711;stroke-linejoin:round;image-rendering:auto"
       inkscape:connector-curvature="0"
       d="m 284.77332,609.954 c 0,0 13.34808,15.48047 -64.05427,82.22085 L 207.37097,676.69438 284.77332,609.954 Z"
       id="path3524" /><path
       style="opacity:1;fill:#f0f0f0;stroke:#000000;stroke-width:2.19269252;stroke-linejoin:round;image-rendering:auto"
       inkscape:connector-curvature="0"
       d="m 284.77332,609.954 c 0,0 -14.46101,30.18116 -68.48713,77.07983 l 4.51073,5.23132 c 0,0 77.32448,-66.83068 63.9764,-82.31115 z"
       id="path3526" /><path
       style="opacity:1;fill:#5e3f30;stroke:#000000;stroke-width:2.19269252;stroke-linecap:round;stroke-linejoin:round;image-rendering:auto"
       inkscape:connector-curvature="0"
       d="m 201.88553,666.81293 26.69616,30.96095 -7.74023,6.67404 -26.69616,-30.96095 7.74023,-6.67404 z"
       id="path3528" /></g><g
     id="g3273"
     inkscape:export-ydpi="90"
     inkscape:export-xdpi="90"
     inkscape:export-filename="/home/lamatin/Projekt_Kliparty/9.C prace/Kamca/Obrázky Inkscape/baterka.png"
     transform="matrix(0.18006956,-0.14680214,0.16277084,0.19965699,85.024744,535.6546)"><g
       id="g3253"
       style="fill:#4d4d4d"
       transform="matrix(0.99983,0.018469,-0.018469,0.99983,174.36,-72.403)"><rect
         id="rect3255"
         style="fill:#4d4d4d;fill-rule:evenodd;stroke:#000000;stroke-width:0.80000001"
         rx="8.0811005"
         ry="8.0811005"
         height="28.993999"
         width="60.623001"
         y="305.12"
         x="374.28" /><g
         id="g3257"
         style="fill:#4d4d4d"><path
           inkscape:connector-curvature="0"
           id="path3259"
           sodipodi:nodetypes="ccccccc"
           style="fill:#4d4d4d;fill-rule:evenodd;stroke:#000000;stroke-width:1px"
           d="m 610.13,244.24 c -94.58,11.24 -83.44,56.82 -173.52,82.78 -111.83,5.13 -249.44,4.63 -359.46,14.25 -99.479,8.13 -136.45,-19.81 -139.42,66.8 0.159,57.31 28.117,66.46 117.62,60.21 191.45,-8.8 237.97,-15.04 380.95,-11.71 69.41,-13.21 109.99,53.23 179.89,36.17" /><path
           inkscape:connector-curvature="0"
           id="path3261"
           sodipodi:nodetypes="csssssssssssssc"
           style="fill:#4d4d4d;fill-rule:evenodd;stroke:#000000;stroke-width:1px"
           d="m 609.29,244.15 c 1.45,1.79 2.6,6.68 3.21,10.36 1.22,7.32 2.17,14.82 3.21,22.14 0.68,4.71 0.5,9.62 1.43,14.28 1.53,7.65 3.22,16.46 3.22,24.29 0,8.38 -0.72,16.59 -0.72,25 0,8.2 13.57,16.29 13.57,24.29 0,16.77 -24.58,17.49 -7.14,40 2.36,3.04 -5.82,17.27 -4.28,20.35 1.16,2.33 0.35,6.66 0.35,9.29 0,2.6 0.13,4.81 0.72,7.14 0.76,3.05 -0.03,5.12 1.07,0.72 3.4,-13.61 4.2,33.87 -0.72,9.28 -0.51,-2.57 -5.52,39.42 -7.5,38.93 -0.77,-0.19 -0.66,1.58 -0.71,1.79" /></g><ellipse
         ry="123.23861"
         rx="45.456863"
         cy="369.49905"
         cx="613.1626"
         id="path3263"
         style="fill:#4d4d4d;fill-rule:evenodd;stroke:#000000;stroke-width:0.80000001"
         transform="matrix(1,0,0,1.017,-4.432,-5.9862)" /><ellipse
         ry="123.23861"
         rx="45.456863"
         cy="369.49905"
         cx="613.1626"
         id="path3265"
         style="fill:#4d4d4d;fill-rule:evenodd;stroke:#000000;stroke-width:0.80000001"
         transform="matrix(1,0,0,1.017,-4.432,-5.9862)" /><rect
         id="rect3267"
         ry="8.0811005"
         style="fill:#4d4d4d;fill-rule:evenodd;stroke:#000000;stroke-width:0.76793998"
         rx="8.0811005"
         transform="matrix(0.9993,-0.037274,0.031654,0.9995,0,0)"
         height="17.131001"
         width="432.35999"
         y="355.16"
         x="-40.43" /><rect
         id="rect3269"
         style="fill:#4d4d4d;fill-rule:evenodd;stroke:#000000;stroke-width:0.76793998"
         transform="matrix(0.9993,-0.037274,0.031654,0.9995,0,0)"
         rx="8.0811005"
         ry="8.0811005"
         height="17.131001"
         width="432.35999"
         y="395.13"
         x="-41.695999" /><rect
         id="rect3271"
         ry="8.0811005"
         style="fill:#4d4d4d;fill-rule:evenodd;stroke:#000000;stroke-width:0.76793998"
         rx="8.0811005"
         transform="matrix(0.9993,-0.037274,0.031654,0.9995,0,0)"
         height="17.131001"
         width="432.35999"
         y="433.10999"
         x="-42.898998" /></g><g
       id="g2793"
       transform="matrix(0.99983,0.018469,-0.018469,0.99983,170.36,-76.462)"><rect
         id="rect2065"
         style="fill:#000000;fill-rule:evenodd;stroke:#000000;stroke-width:0.80000001"
         rx="8.0811005"
         ry="8.0811005"
         height="28.993999"
         width="60.623001"
         y="305.12"
         x="374.28" /><g
         id="g1318"
         style="fill:#7f7f7f"><path
           inkscape:connector-curvature="0"
           id="path1307"
           sodipodi:nodetypes="ccccccc"
           style="fill:#7f7f7f;fill-rule:evenodd;stroke:#000000;stroke-width:1px"
           d="m 610.13,244.24 c -94.58,11.24 -83.44,56.82 -173.52,82.78 -111.83,5.13 -249.44,4.63 -359.46,14.25 -99.479,8.13 -136.45,-19.81 -139.42,66.8 0.159,57.31 28.117,66.46 117.62,60.21 191.45,-8.8 237.97,-15.04 380.95,-11.71 69.41,-13.21 109.99,53.23 179.89,36.17" /><path
           inkscape:connector-curvature="0"
           id="path1316"
           sodipodi:nodetypes="csssssssssssssc"
           style="fill:#7f7f7f;fill-rule:evenodd;stroke:#000000;stroke-width:1px"
           d="m 609.29,244.15 c 1.45,1.79 2.6,6.68 3.21,10.36 1.22,7.32 2.17,14.82 3.21,22.14 0.68,4.71 0.5,9.62 1.43,14.28 1.53,7.65 3.22,16.46 3.22,24.29 0,8.38 -0.72,16.59 -0.72,25 0,8.2 13.57,16.29 13.57,24.29 0,16.77 -24.58,17.49 -7.14,40 2.36,3.04 -5.82,17.27 -4.28,20.35 1.16,2.33 0.35,6.66 0.35,9.29 0,2.6 0.13,4.81 0.72,7.14 0.76,3.05 -0.03,5.12 1.07,0.72 3.4,-13.61 4.2,33.87 -0.72,9.28 -0.51,-2.57 -5.52,39.42 -7.5,38.93 -0.77,-0.19 -0.66,1.58 -0.71,1.79" /></g><ellipse
         ry="123.23861"
         rx="45.456863"
         cy="369.49905"
         cx="613.1626"
         id="path1305"
         style="fill:#c3ecec;fill-rule:evenodd;stroke:#000000;stroke-width:0.80000001"
         transform="matrix(1,0,0,1.017,-4.432,-5.9862)" /><ellipse
         ry="123.23861"
         rx="45.456863"
         cy="369.49905"
         cx="613.1626"
         id="path2049"
         style="fill:url(#radialGradient4256);fill-rule:evenodd;stroke:#000000;stroke-width:0.80000001"
         transform="matrix(1,0,0,1.017,-4.432,-5.9862)" /><rect
         id="rect2059"
         style="fill:#484848;fill-rule:evenodd;stroke:#000000;stroke-width:0.76793998"
         transform="matrix(0.9993,-0.037274,0.031654,0.9995,0,0)"
         rx="8.0811005"
         ry="8.0811005"
         height="17.131001"
         width="432.35999"
         y="355.16"
         x="-40.43" /><rect
         id="rect2061"
         ry="8.0811005"
         style="fill:#484848;fill-rule:evenodd;stroke:#000000;stroke-width:0.76793998"
         rx="8.0811005"
         transform="matrix(0.9993,-0.037274,0.031654,0.9995,0,0)"
         height="17.131001"
         width="432.35999"
         y="395.13"
         x="-41.695999" /><rect
         id="rect2063"
         style="fill:#484848;fill-rule:evenodd;stroke:#000000;stroke-width:0.76793998"
         transform="matrix(0.9993,-0.037274,0.031654,0.9995,0,0)"
         rx="8.0811005"
         ry="8.0811005"
         height="17.131001"
         width="432.35999"
         y="433.10999"
         x="-42.898998" /></g></g><g
     transform="matrix(0.21450719,0,0,0.21450719,610.96863,308.93046)"
     id="g4017"><g
       id="g3971"><path
         style="fill:#fbb164"
         inkscape:connector-curvature="0"
         id="path3973"
         d="m 584.286,298.145 c 0,4.893 0.729,9.797 0.488,14.629 -0.243,4.885 0.729,9.912 0.245,14.729 -0.489,4.863 -2.565,9.578 -3.293,14.367 -0.733,4.83 -3.806,9.203 -4.776,13.951 -0.977,4.783 -1.236,9.658 -2.448,14.352 -1.221,4.727 -1.181,9.797 -2.631,14.426 -1.459,4.654 -2.014,9.676 -3.7,14.226 -1.694,4.573 -6.609,7.855 -8.525,12.315 -1.925,4.479 -1.575,9.983 -3.717,14.342 -2.149,4.373 -3.544,9.228 -5.905,13.473 -2.368,4.257 -5.435,8.202 -8.009,12.323 -2.58,4.131 -8.267,6.186 -11.047,10.172 -2.784,3.994 -4.855,8.406 -7.834,12.249 -2.982,3.847 -4.101,9.22 -7.271,12.908 -3.171,3.691 -8.433,5.492 -11.784,9.017 -3.353,3.526 -5.622,8.1 -9.147,11.452 -3.525,3.352 -7.778,5.886 -11.47,9.057 -3.688,3.17 -6.203,7.806 -10.051,10.788 -3.843,2.979 -9.693,3.206 -13.687,5.991 -3.987,2.78 -6.732,7.376 -10.862,9.955 -4.122,2.574 -9.037,3.779 -13.295,6.147 -4.245,2.361 -7.246,7.151 -11.619,9.301 -4.358,2.142 -10.116,1.284 -14.595,3.209 -4.46,1.916 -8.132,5.791 -12.704,7.485 -4.55,1.686 -9.982,0.748 -14.638,2.207 -4.628,1.451 -9.01,3.553 -13.735,4.772 -4.694,1.212 -9.565,1.398 -14.35,2.377 -4.747,0.97 -9.439,1.802 -14.269,2.535 -4.789,0.728 -9.433,2.168 -14.295,2.657 -4.817,0.484 -9.62,0.681 -14.504,0.924 -4.833,0.241 -9.633,2.074 -14.525,2.074 -4.892,0 -9.767,-0.33 -14.6,-0.571 -4.884,-0.243 -9.837,0.296 -14.654,-0.188 -4.863,-0.489 -9.441,-3.111 -14.23,-3.839 -4.83,-0.733 -10.069,0.836 -14.816,-0.135 -4.784,-0.978 -9.441,-2.715 -14.136,-3.927 -4.726,-1.221 -8.768,-4.744 -13.396,-6.195 -4.655,-1.459 -10.323,0.04 -14.874,-1.646 -4.573,-1.694 -8.675,-4.711 -13.135,-6.628 -4.479,-1.924 -7.994,-5.87 -12.353,-8.012 -4.373,-2.149 -9.16,-3.392 -13.405,-5.753 -4.257,-2.368 -9.04,-3.857 -13.161,-6.432 -4.13,-2.58 -7.767,-5.937 -11.753,-8.717 -3.994,-2.785 -9.006,-4.256 -12.848,-7.234 -3.847,-2.982 -7.803,-5.979 -11.491,-9.148 -3.691,-3.172 -6.287,-7.641 -9.812,-10.992 -3.526,-3.353 -8.079,-5.76 -11.432,-9.285 -3.352,-3.525 -4.727,-8.882 -7.898,-12.573 -3.169,-3.688 -7.843,-6.176 -10.825,-10.022 -2.979,-3.843 -6.137,-7.653 -8.922,-11.646 -2.78,-3.987 -3.492,-9.375 -6.072,-13.506 -2.574,-4.121 -7.403,-6.958 -9.771,-11.216 -2.361,-4.245 -3.795,-9.071 -5.944,-13.445 -2.142,-4.357 -2.353,-9.616 -4.277,-14.095 -1.917,-4.46 -3.866,-8.871 -5.56,-13.443 -1.686,-4.55 -5.665,-8.356 -7.124,-13.012 -1.451,-4.628 -2.353,-9.509 -3.573,-14.233 -1.212,-4.694 0.924,-10.16 -0.054,-14.943 -0.971,-4.748 -2.447,-9.336 -3.181,-14.166 -0.728,-4.789 -2.087,-9.468 -2.576,-14.33 -0.484,-4.817 0.057,-9.681 -0.187,-14.564 -0.241,-4.834 -1.162,-9.619 -1.162,-14.512 0,-4.893 0.959,-9.676 1.2,-14.509 0.244,-4.884 -2.028,-9.919 -1.544,-14.736 0.489,-4.863 4.054,-9.294 4.781,-14.083 0.734,-4.83 -2.358,-10.326 -1.388,-15.074 0.978,-4.783 2.576,-9.503 3.788,-14.198 1.22,-4.726 2.265,-9.579 3.716,-14.208 1.459,-4.655 3.601,-9.152 5.287,-13.702 1.694,-4.573 3.081,-9.345 4.997,-13.805 1.925,-4.479 6.654,-7.677 8.796,-12.035 2.149,-4.373 4.398,-8.621 6.76,-12.866 2.368,-4.257 3.075,-9.481 5.649,-13.602 2.58,-4.13 5.596,-8.012 8.376,-11.999 2.785,-3.994 5.791,-7.85 8.77,-11.692 2.982,-3.847 6.722,-7.071 9.891,-10.759 3.172,-3.691 5.242,-8.4 8.594,-11.925 3.353,-3.526 6.479,-7.378 10.005,-10.731 3.525,-3.352 8.151,-5.558 11.842,-8.729 3.688,-3.169 7.28,-6.49 11.127,-9.472 3.842,-2.979 8.438,-4.933 12.432,-7.718 3.987,-2.78 8.527,-4.629 12.658,-7.208 4.121,-2.574 6.986,-7.259 11.243,-9.627 4.245,-2.361 8.812,-4.206 13.185,-6.355 4.358,-2.142 9.323,-2.966 13.802,-4.891 4.46,-1.917 8.532,-4.797 13.105,-6.492 4.55,-1.686 9.607,-1.864 14.262,-3.323 4.628,-1.451 8.87,-4.239 13.596,-5.459 4.694,-1.212 9.256,-3.267 14.04,-4.244 4.747,-0.971 9.811,-0.477 14.64,-1.211 4.789,-0.728 9.653,-0.937 14.516,-1.426 4.817,-0.484 9.637,-1.032 14.521,-1.276 4.833,-0.241 9.684,-0.917 14.576,-0.917 4.892,0 9.851,-1.488 14.684,-1.247 4.884,0.244 9.68,2.11 14.497,2.594 4.863,0.489 9.963,-0.565 14.752,0.163 4.83,0.734 9.324,3.565 14.071,4.536 4.784,0.978 9.078,3.822 13.772,5.035 4.726,1.22 9.983,0.413 14.611,1.864 4.655,1.459 8.913,4.04 13.463,5.726 4.573,1.694 9.651,2.124 14.11,4.04 4.479,1.925 8.886,4.092 13.244,6.233 4.373,2.149 8.285,5.206 12.53,7.567 4.257,2.368 8.76,4.332 12.881,6.906 4.131,2.58 7.929,5.682 11.915,8.462 3.994,2.785 7.839,5.764 11.682,8.743 3.847,2.982 6.384,7.483 10.072,10.653 3.69,3.171 8.409,5.122 11.934,8.474 3.526,3.353 7.827,5.955 11.18,9.48 3.352,3.525 6.043,7.687 9.214,11.378 3.17,3.688 5.751,7.85 8.732,11.696 2.979,3.843 5.146,8.229 7.932,12.223 2.779,3.987 8.294,6.196 10.874,10.326 2.574,4.122 1.747,10.264 4.115,14.521 2.361,4.245 5.653,7.945 7.802,12.318 2.143,4.358 3.578,9 5.503,13.479 1.916,4.46 5.983,8.072 7.678,12.645 1.686,4.55 2.708,9.39 4.167,14.045 1.451,4.628 0.774,9.857 1.994,14.583 1.212,4.694 3.168,9.18 4.146,13.964 0.971,4.748 2.744,9.366 3.478,14.196 0.728,4.789 0.347,9.731 0.836,14.594 0.483,4.817 0.842,9.635 1.085,14.52 0.24,4.83 0.998,9.66 0.998,14.553 z" /></g><g
       style="opacity:0.2"
       id="g3975"><path
         style="fill:#ffffff"
         inkscape:connector-curvature="0"
         id="path3977"
         d="m 296.333,10.597 c -4.893,0 -9.801,-1.204 -14.634,-0.963 -4.884,0.244 -9.663,1.769 -14.48,2.253 -4.863,0.489 -9.896,-0.354 -14.685,0.374 -4.83,0.734 -9.376,3.083 -14.124,4.054 -4.784,0.978 -9.266,3.013 -13.96,4.226 -4.726,1.22 -9.751,1.227 -14.379,2.678 -4.655,1.459 -9.402,2.657 -13.952,4.343 -4.573,1.694 -9.041,3.68 -13.5,5.596 -4.479,1.925 -8.667,4.463 -13.026,6.605 -4.373,2.149 -7.888,5.809 -12.133,8.17 -4.257,2.368 -9.162,3.518 -13.283,6.092 -4.13,2.58 -7.21,6.634 -11.197,9.414 -3.994,2.785 -9.054,4.027 -12.897,7.005 -3.847,2.982 -8.791,4.688 -12.479,7.858 -3.691,3.171 -5.835,8.104 -9.36,11.455 -3.526,3.353 -7.721,6.042 -11.074,9.568 -3.352,3.525 -5.506,8.126 -8.678,11.817 -3.169,3.688 -6.317,7.345 -9.3,11.192 -2.978,3.842 -6.571,7.219 -9.356,11.213 -2.78,3.987 -4.958,8.368 -7.539,12.499 -2.574,4.122 -5.467,8.05 -7.835,12.308 -2.361,4.245 -4.728,8.503 -6.877,12.876 -2.142,4.358 -5.909,8.041 -7.833,12.52 -1.917,4.46 -2.151,9.67 -3.845,14.243 -1.686,4.55 -2.118,9.528 -3.577,14.183 -1.451,4.628 -3.545,9.063 -4.765,13.789 -1.212,4.694 -2.927,9.303 -3.905,14.087 -0.971,4.748 -2.673,9.436 -3.407,14.266 -0.728,4.789 2.022,10.023 1.534,14.886 -0.484,4.817 -4.671,9.377 -4.915,14.262 -0.241,4.833 0.835,9.788 0.835,14.681 0,4.732 -0.521,9.498 -0.294,14.174 0.229,4.723 3,9.242 3.455,13.902 0.458,4.705 0.43,9.406 1.112,14.042 0.688,4.674 -0.566,9.688 0.343,14.288 0.917,4.632 2.829,9.08 3.964,13.631 1.143,4.58 3.298,8.875 4.657,13.365 1.367,4.516 2.749,9.723 4.328,14.143 2.846,-5.875 5.949,-10.225 8.957,-13.126 4.239,-4.091 8.329,-8.029 13.714,-8.048 4.492,-0.015 9.456,3.359 15.362,4.809 4.534,1.112 9.318,3.553 14.977,4.879 5.171,1.211 9.686,2.182 13.707,4.424 4.465,2.488 10.142,3.463 13.443,6.953 3.375,3.568 3.909,9.448 6.349,13.765 2.388,4.225 6.13,7.924 7.892,12.577 1.731,4.575 2.171,9.677 3.554,14.396 1.399,4.776 4.176,9.136 5.479,13.782 1.375,4.903 -0.347,10.66 1.223,15.1 1.743,4.93 6.692,8.107 9.076,12.04 2.689,4.437 3.667,10.481 7.745,13.042 3.835,2.407 9.425,2.947 15.009,3.143 4.247,0.149 8.746,-2.557 14.26,-3.96 4.761,-1.211 9.151,-2.79 13.361,-3.765 4.842,-1.122 10.041,1.156 14.227,0.333 4.956,-0.974 9.314,-2.356 13.469,-2.935 5.105,-0.711 9.549,-1.912 13.662,-2.064 5.218,-0.195 9.989,-1.591 14.049,-0.971 4.938,0.755 9.377,2.777 13.405,4.586 4.076,1.831 7.841,4.583 11.894,7.322 3.505,2.368 7.753,4.251 11.878,7.18 3.433,2.437 5.854,6.969 10.092,9.723 4.754,3.09 9.941,3.196 14.271,4.266 5.112,1.264 9.524,1.542 14.364,0.73 4.745,-0.796 9.355,-1.995 14.165,-4.021 4.382,-1.847 8.479,-4.757 13.172,-7.026 4.317,-2.088 9.926,-1.785 14.706,-3.768 4.439,-1.841 8.482,-5.275 13.479,-6.655 4.938,-1.363 9.828,-2.181 14.415,-2.24 4.951,-0.063 9.638,2.128 14.3,2.698 4.882,0.598 9.631,2.413 14.335,2.677 4.809,0.27 9.364,-3.086 14.137,-4.277 4.827,-1.205 10.213,-1.505 13.805,-4.991 3.284,-3.188 4.901,-8.323 7.432,-12.873 2.253,-4.052 4.322,-8.473 6.178,-13.214 1.734,-4.429 4.803,-8.584 6.35,-13.305 1.518,-4.627 1.254,-9.885 2.737,-14.506 1.524,-4.748 1.688,-9.954 3.333,-14.394 1.783,-4.813 6.762,-8.028 8.879,-12.104 2.442,-4.701 4.184,-9.18 7.358,-12.339 3.323,-3.307 7.783,-2.102 12.336,1.503 3.336,2.642 6.353,6.739 9.892,9.449 4.242,3.247 8.41,5.231 12.337,3.716 3.351,-1.293 7.29,-4.706 9.317,-10.494 1.361,-3.885 -0.486,-9.34 0.551,-14.416 0.892,-4.369 2.181,-8.915 2.982,-13.705 0.77,-4.594 1.653,-9.271 2.466,-13.867 0.843,-4.771 2.318,-9.366 3.343,-13.725 1.175,-4.996 2.953,-9.484 4.56,-13.343 2.203,-5.293 4.255,-10.576 7.733,-12.306 3.519,-1.749 8.412,-1.264 13.784,2.322 2.029,-4.102 4.507,-6.645 6.281,-10.797 1.797,-4.203 3.29,-8.524 4.832,-12.771 1.56,-4.293 2.647,-8.723 3.954,-13.052 -0.268,-4.866 1.484,-9.917 0.979,-14.715 -0.512,-4.843 -2.977,-9.472 -3.725,-14.24 -0.755,-4.81 -0.151,-9.903 -1.141,-14.63 -0.997,-4.763 -2.099,-9.58 -3.328,-14.252 -1.237,-4.704 -4.208,-8.942 -5.674,-13.548 -1.475,-4.633 -3.72,-8.977 -5.418,-13.504 -1.708,-4.55 -4.841,-8.443 -6.769,-12.88 -1.936,-4.456 -0.716,-10.36 -2.866,-14.695 -2.159,-4.35 -7.568,-6.967 -9.937,-11.189 -2.375,-4.234 -1.945,-10.115 -4.524,-14.213 -2.585,-4.107 -5.05,-8.388 -7.833,-12.352 -2.788,-3.971 -6.667,-7.205 -9.647,-11.024 -2.983,-3.825 -6.281,-7.418 -9.45,-11.084 -3.171,-3.669 -7.919,-5.857 -11.269,-9.361 -3.351,-3.504 -6.83,-6.752 -10.352,-10.084 -3.521,-3.331 -6.994,-6.581 -10.68,-9.733 -3.684,-3.149 -7.365,-6.164 -11.206,-9.126 -3.836,-2.96 -6.763,-7.085 -10.748,-9.852 -3.979,-2.762 -6.947,-7.149 -11.069,-9.712 -4.111,-2.558 -8.964,-3.993 -13.211,-6.346 -4.234,-2.345 -8.784,-4.145 -13.146,-6.28 -4.347,-2.127 -9.181,-3.167 -13.646,-5.078 -4.447,-1.903 -7.84,-6.568 -12.398,-8.25 -4.537,-1.675 -10.14,-0.356 -14.78,-1.805 -4.613,-1.441 -9.406,-2.071 -14.117,-3.282 -4.679,-1.204 -8.677,-5.442 -13.445,-6.413 -4.731,-0.964 -9.973,0.739 -14.786,0.011 -4.772,-0.723 -9.584,-0.813 -14.43,-1.298 -4.801,-0.481 -9.529,-1.449 -14.396,-1.69 -4.816,-0.246 -9.619,-0.827 -14.495,-0.827 z" /></g><g
       id="g3979"><path
         style="fill:#7c411e"
         inkscape:connector-curvature="0"
         id="path3981"
         d="m 296.786,125.553 c 0,5.478 -2.351,10.366 -4.326,15.13 -2.048,4.938 -4.035,9.921 -7.757,13.643 -3.721,3.721 -8.82,5.427 -13.759,7.475 -4.764,1.975 -9.534,4.491 -15.013,4.491 -5.479,0 -11.204,-0.217 -15.968,-2.192 -4.938,-2.048 -8.834,-6.302 -12.556,-10.023 -3.722,-3.722 -6.335,-8.299 -8.383,-13.237 -1.976,-4.764 -3.215,-9.808 -3.215,-15.286 0,-5.478 0.557,-10.806 2.532,-15.569 2.048,-4.938 3.966,-10.611 7.688,-14.333 3.722,-3.722 9.352,-5.741 14.289,-7.789 4.764,-1.975 10.134,-4.78 15.612,-4.78 5.478,0 10.728,3.094 15.491,5.07 4.938,2.047 8.129,6.338 11.851,10.06 3.721,3.721 8.396,6.752 10.443,11.69 1.977,4.763 3.071,10.172 3.071,15.65 z" /></g><g
       id="g3983"><path
         style="fill:#7c411e"
         inkscape:connector-curvature="0"
         id="path3985"
         d="m 171.5,242.008 c 0,5.715 -0.448,11.526 -3.118,16.141 -2.754,4.761 -7.453,8.373 -12.214,11.127 -4.615,2.67 -10.028,3.581 -15.743,3.581 -5.715,0 -10.383,-2.197 -14.999,-4.867 -4.761,-2.755 -11.159,-4.527 -13.914,-9.289 -2.67,-4.615 -0.634,-10.979 -0.634,-16.694 0,-5.715 0.244,-10.76 2.914,-15.375 2.755,-4.761 6.815,-7.952 11.577,-10.707 4.615,-2.67 9.341,-6.465 15.056,-6.465 5.715,0 11.361,2.205 15.976,4.875 4.761,2.754 7.134,7.98 9.889,12.741 2.671,4.617 5.21,9.217 5.21,14.932 z" /></g><g
       id="g3987"><path
         style="fill:#7c411e"
         inkscape:connector-curvature="0"
         id="path3989"
         d="m 330.246,282.887 c 0,4.77 1.397,9.767 -0.322,13.914 -1.782,4.299 -5.07,8.125 -8.311,11.365 -3.241,3.24 -8.096,4.047 -12.395,5.83 -4.147,1.719 -8.115,3.448 -12.885,3.448 -4.77,0 -9.438,-0.038 -13.586,-1.759 -4.299,-1.782 -7.565,-5.168 -10.806,-8.407 -3.239,-3.239 -5.699,-6.891 -7.481,-11.19 -1.72,-4.147 -5.229,-8.432 -5.229,-13.202 0,-4.769 3.275,-9.152 4.995,-13.299 1.782,-4.299 5.084,-7.245 8.323,-10.485 3.24,-3.24 6.324,-6.208 10.623,-7.991 4.147,-1.72 8.392,-5.43 13.161,-5.43 4.769,0 8.953,3.857 13.101,5.577 4.3,1.783 9.219,2.83 12.459,6.069 3.24,3.239 5.023,7.854 6.806,12.153 1.719,4.148 1.547,8.638 1.547,13.407 z" /></g><g
       id="g3991"><path
         style="fill:#7c411e"
         inkscape:connector-curvature="0"
         id="path3993"
         d="m 211.856,420.73 c 0,5.156 -3.935,9.709 -5.793,14.192 -1.928,4.647 -3.186,9.881 -6.689,13.384 -3.502,3.503 -8.43,5.498 -13.078,7.425 -4.483,1.859 -9.342,4.424 -14.498,4.424 -5.156,0 -9.353,-4.159 -13.836,-6.019 -4.647,-1.927 -10.559,-2.005 -14.062,-5.508 -3.503,-3.503 -3.521,-9.439 -5.448,-14.087 -1.859,-4.483 -3.928,-8.655 -3.928,-13.812 0,-5.155 -1.048,-10.62 0.812,-15.104 1.927,-4.647 4.71,-9.643 8.213,-13.146 3.502,-3.503 9.582,-3.673 14.229,-5.601 4.483,-1.859 8.864,-3.408 14.02,-3.408 5.156,0 10.08,0.24 14.563,2.099 4.648,1.927 10.004,3.587 13.507,7.089 3.502,3.503 6.11,8.467 8.038,13.114 1.859,4.486 3.95,9.803 3.95,14.958 z" /></g><g
       id="g3995"><path
         style="fill:#7c411e"
         inkscape:connector-curvature="0"
         id="path3997"
         d="m 419.152,450.201 c 0,4.77 -0.163,9.324 -1.883,13.472 -1.783,4.299 -3.23,9.342 -6.471,12.582 -3.241,3.24 -7.891,5.636 -12.189,7.419 -4.147,1.72 -9.095,2.342 -13.864,2.342 -4.769,0 -9.938,-0.089 -14.086,-1.809 -4.299,-1.783 -7.043,-6.396 -10.283,-9.637 -3.239,-3.24 -7.547,-6.111 -9.329,-10.41 -1.72,-4.147 -2.491,-9.189 -2.491,-13.959 0,-4.77 1.362,-9.566 3.082,-13.714 1.783,-4.299 3.967,-8.947 7.207,-12.188 3.239,-3.239 8.61,-3.683 12.909,-5.465 4.147,-1.72 8.222,-4.425 12.991,-4.425 4.769,0 9.655,0.75 13.803,2.47 4.299,1.783 7.241,5.798 10.481,9.037 3.24,3.24 4.639,7.269 6.422,11.567 1.719,4.149 3.701,7.949 3.701,12.718 z" /></g><g
       id="g3999"><path
         style="fill:#7c411e"
         inkscape:connector-curvature="0"
         id="path4001"
         d="m 524.157,293.343 c 0,4.383 -0.673,8.9 -2.253,12.711 -1.639,3.95 -5.442,6.58 -8.419,9.557 -2.978,2.978 -6.691,4.164 -10.643,5.802 -3.811,1.581 -7.242,5.521 -11.625,5.521 -4.383,0 -8.034,-3.41 -11.845,-4.99 -3.951,-1.639 -8.248,-2.553 -11.225,-5.531 -2.978,-2.977 -5.364,-6.662 -7.003,-10.612 -1.58,-3.812 -0.921,-8.074 -0.921,-12.457 0,-4.382 -0.907,-8.748 0.674,-12.559 1.638,-3.951 3.097,-8.71 6.073,-11.688 2.977,-2.977 8.457,-2.7 12.407,-4.338 3.811,-1.581 7.456,-3.393 11.839,-3.393 4.383,0 8.883,-0.246 12.693,1.334 3.949,1.638 7.188,4.808 10.164,7.786 2.977,2.977 5.581,6.449 7.22,10.4 1.582,3.811 2.864,8.075 2.864,12.457 z" /></g><g
       id="g4003"><path
         style="fill:#7c411e"
         inkscape:connector-curvature="0"
         id="path4005"
         d="m 449.01,168.808 c 0,5.195 0.361,10.31 -2.065,14.505 -2.504,4.328 -5.55,9.396 -9.878,11.9 -4.194,2.427 -10.051,0.723 -15.246,0.723 -5.195,0 -9.895,-0.297 -14.09,-2.724 -4.328,-2.504 -8.835,-5.396 -11.339,-9.724 -2.427,-4.195 -3.096,-9.486 -3.096,-14.681 0,-5.196 1.2,-10.179 3.628,-14.374 2.504,-4.328 7.022,-6.587 11.351,-9.091 4.195,-2.427 8.351,-6.73 13.546,-6.73 5.195,0 10.659,2.042 14.854,4.47 4.328,2.504 8.261,6.606 10.765,10.934 2.427,4.195 1.57,9.596 1.57,14.792 z" /></g><g
       id="g4007"><path
         style="fill:none;stroke:#63300f;stroke-width:14;stroke-miterlimit:10"
         inkscape:connector-curvature="0"
         id="path4009"
         d="m 584.286,298.145 c 0,4.893 0.729,9.797 0.488,14.629 -0.243,4.885 0.729,9.912 0.245,14.729 -0.489,4.863 -2.565,9.578 -3.293,14.367 -0.733,4.83 -3.806,9.203 -4.776,13.951 -0.977,4.783 -1.236,9.658 -2.448,14.352 -1.221,4.727 -1.181,9.797 -2.631,14.426 -1.459,4.654 -2.014,9.676 -3.7,14.226 -1.694,4.573 -6.609,7.855 -8.525,12.315 -1.925,4.479 -1.575,9.983 -3.717,14.342 -2.149,4.373 -3.544,9.228 -5.905,13.473 -2.368,4.257 -5.435,8.202 -8.009,12.323 -2.58,4.131 -8.267,6.186 -11.047,10.172 -2.784,3.994 -4.855,8.406 -7.834,12.249 -2.982,3.847 -4.101,9.22 -7.271,12.908 -3.171,3.691 -8.433,5.492 -11.784,9.017 -3.353,3.526 -5.622,8.1 -9.147,11.452 -3.525,3.352 -7.778,5.886 -11.47,9.057 -3.688,3.17 -6.203,7.806 -10.051,10.788 -3.843,2.979 -9.693,3.206 -13.687,5.991 -3.987,2.78 -6.732,7.376 -10.862,9.955 -4.122,2.574 -9.037,3.779 -13.295,6.147 -4.245,2.361 -7.246,7.151 -11.619,9.301 -4.358,2.142 -10.116,1.284 -14.595,3.209 -4.46,1.916 -8.132,5.791 -12.704,7.485 -4.55,1.686 -9.982,0.748 -14.638,2.207 -4.628,1.451 -9.01,3.553 -13.735,4.772 -4.694,1.212 -9.565,1.398 -14.35,2.377 -4.747,0.97 -9.439,1.802 -14.269,2.535 -4.789,0.728 -9.433,2.168 -14.295,2.657 -4.817,0.484 -9.62,0.681 -14.504,0.924 -4.833,0.241 -9.633,2.074 -14.525,2.074 -4.892,0 -9.767,-0.33 -14.6,-0.571 -4.884,-0.243 -9.837,0.296 -14.654,-0.188 -4.863,-0.489 -9.441,-3.111 -14.23,-3.839 -4.83,-0.733 -10.069,0.836 -14.816,-0.135 -4.784,-0.978 -9.441,-2.715 -14.136,-3.927 -4.726,-1.221 -8.768,-4.744 -13.396,-6.195 -4.655,-1.459 -10.323,0.04 -14.874,-1.646 -4.573,-1.694 -8.675,-4.711 -13.135,-6.628 -4.479,-1.924 -7.994,-5.87 -12.353,-8.012 -4.373,-2.149 -9.16,-3.392 -13.405,-5.753 -4.257,-2.368 -9.04,-3.857 -13.161,-6.432 -4.13,-2.58 -7.767,-5.937 -11.753,-8.717 -3.994,-2.785 -9.006,-4.256 -12.848,-7.234 -3.847,-2.982 -7.803,-5.979 -11.491,-9.148 -3.691,-3.172 -6.287,-7.641 -9.812,-10.992 -3.526,-3.353 -8.079,-5.76 -11.432,-9.285 -3.352,-3.525 -4.727,-8.882 -7.898,-12.573 -3.169,-3.688 -7.843,-6.176 -10.825,-10.022 -2.979,-3.843 -6.137,-7.653 -8.922,-11.646 -2.78,-3.987 -3.492,-9.375 -6.072,-13.506 -2.574,-4.121 -7.403,-6.958 -9.771,-11.216 -2.361,-4.245 -3.795,-9.071 -5.944,-13.445 -2.142,-4.357 -2.353,-9.616 -4.277,-14.095 -1.917,-4.46 -3.866,-8.871 -5.56,-13.443 -1.686,-4.55 -5.665,-8.356 -7.124,-13.012 -1.451,-4.628 -2.353,-9.509 -3.573,-14.233 -1.212,-4.694 0.924,-10.16 -0.054,-14.943 -0.971,-4.748 -2.447,-9.336 -3.181,-14.166 -0.728,-4.789 -2.087,-9.468 -2.576,-14.33 -0.484,-4.817 0.057,-9.681 -0.187,-14.564 -0.241,-4.834 -1.162,-9.619 -1.162,-14.512 0,-4.893 0.959,-9.676 1.2,-14.509 0.244,-4.884 -2.028,-9.919 -1.544,-14.736 0.489,-4.863 4.054,-9.294 4.781,-14.083 0.734,-4.83 -2.358,-10.326 -1.388,-15.074 0.978,-4.783 2.576,-9.503 3.788,-14.198 1.22,-4.726 2.265,-9.579 3.716,-14.208 1.459,-4.655 3.601,-9.152 5.287,-13.702 1.694,-4.573 3.081,-9.345 4.997,-13.805 1.925,-4.479 6.654,-7.677 8.796,-12.035 2.149,-4.373 4.398,-8.621 6.76,-12.866 2.368,-4.257 3.075,-9.481 5.649,-13.602 2.58,-4.13 5.596,-8.012 8.376,-11.999 2.785,-3.994 5.791,-7.85 8.77,-11.692 2.982,-3.847 6.722,-7.071 9.891,-10.759 3.172,-3.691 5.242,-8.4 8.594,-11.925 3.353,-3.526 6.479,-7.378 10.005,-10.731 3.525,-3.352 8.151,-5.558 11.842,-8.729 3.688,-3.169 7.28,-6.49 11.127,-9.472 3.842,-2.979 8.438,-4.933 12.432,-7.718 3.987,-2.78 8.527,-4.629 12.658,-7.208 4.121,-2.574 6.986,-7.259 11.243,-9.627 4.245,-2.361 8.812,-4.206 13.185,-6.355 4.358,-2.142 9.323,-2.966 13.802,-4.891 4.46,-1.917 8.532,-4.797 13.105,-6.492 4.55,-1.686 9.607,-1.864 14.262,-3.323 4.628,-1.451 8.87,-4.239 13.596,-5.459 4.694,-1.212 9.256,-3.267 14.04,-4.244 4.747,-0.971 9.811,-0.477 14.64,-1.211 4.789,-0.728 9.653,-0.937 14.516,-1.426 4.817,-0.484 9.637,-1.032 14.521,-1.276 4.833,-0.241 9.684,-0.917 14.576,-0.917 4.892,0 9.851,-1.488 14.684,-1.247 4.884,0.244 9.68,2.11 14.497,2.594 4.863,0.489 9.963,-0.565 14.752,0.163 4.83,0.734 9.324,3.565 14.071,4.536 4.784,0.978 9.078,3.822 13.772,5.035 4.726,1.22 9.983,0.413 14.611,1.864 4.655,1.459 8.913,4.04 13.463,5.726 4.573,1.694 9.651,2.124 14.11,4.04 4.479,1.925 8.886,4.092 13.244,6.233 4.373,2.149 8.285,5.206 12.53,7.567 4.257,2.368 8.76,4.332 12.881,6.906 4.131,2.58 7.929,5.682 11.915,8.462 3.994,2.785 7.839,5.764 11.682,8.743 3.847,2.982 6.384,7.483 10.072,10.653 3.69,3.171 8.409,5.122 11.934,8.474 3.526,3.353 7.827,5.955 11.18,9.48 3.352,3.525 6.043,7.687 9.214,11.378 3.17,3.688 5.751,7.85 8.732,11.696 2.979,3.843 5.146,8.229 7.932,12.223 2.779,3.987 8.294,6.196 10.874,10.326 2.574,4.122 1.747,10.264 4.115,14.521 2.361,4.245 5.653,7.945 7.802,12.318 2.143,4.358 3.578,9 5.503,13.479 1.916,4.46 5.983,8.072 7.678,12.645 1.686,4.55 2.708,9.39 4.167,14.045 1.451,4.628 0.774,9.857 1.994,14.583 1.212,4.694 3.168,9.18 4.146,13.964 0.971,4.748 2.744,9.366 3.478,14.196 0.728,4.789 0.347,9.731 0.836,14.594 0.483,4.817 0.842,9.635 1.085,14.52 0.24,4.83 0.998,9.66 0.998,14.553 z"
         stroke-miterlimit="10" /></g></g><g
     id="g4214"
     transform="matrix(1.620446,0,0,1.620446,286.28731,592.51108)"><path
       id="path4216"
       d="m 53.14,33.842 c 0.886,1.313 2.304,0.288 2.304,0.288 l 7.776,-4.705 -0.724,-1.214 -0.19,-0.281 -0.622,-1.026 -7.689,4.671 c 0.001,0.001 -1.482,1.337 -0.855,2.267 z"
       inkscape:connector-curvature="0"
       style="fill:#9197ab" /><path
       id="path4218"
       d="m 38.381,62.63 c 2.267,0.086 2.742,-1.838 2.627,-2.935 -0.11,-1.055 -1.25,-2.524 -2.609,-2.551 -1.124,-0.022 -2.624,0.656 -2.608,2.703 0.008,1.167 1.081,2.725 2.59,2.783 z m -1.625,-2.771 c -0.01,-1.292 0.937,-1.72 1.647,-1.706 0.858,0.017 1.578,0.945 1.647,1.61 0.072,0.692 -0.228,1.907 -1.659,1.853 -0.952,-0.036 -1.63,-1.02 -1.635,-1.757 z"
       inkscape:connector-curvature="0"
       style="fill:#9197ab" /><path
       id="path4220"
       d="m 38.569,65.162 c -1.141,-0.088 -2.679,-0.818 -2.679,-0.818 0,0 -0.803,3.755 -0.904,5.028 -0.156,1.952 0.112,5.906 0.548,7.815 0.487,2.134 3.239,8.134 3.239,8.134 0,0 3.745,-0.773 5.273,-1.804 1.958,-1.321 3.973,-4.334 3.973,-4.334 0,0 -3.715,-6.225 -4.598,-8.465 -0.59,-1.498 -1.615,-6.234 -1.615,-6.234 0,0 -2.307,0.75 -3.237,0.678 z"
       inkscape:connector-curvature="0"
       style="fill:#9197ab" /><path
       id="path4222"
       d="m 75.429,35.501 c 0,0 -3.939,-6.288 -4.406,-7.592 -0.203,-0.568 -0.1,-2.612 -0.1,-2.612 l 3.877,-2.574 -1.236,-1.832 0.631,-0.425 1.239,1.837 4.19,-2.782 c 0,0 -0.058,-0.624 -0.134,-1.34 -0.054,-0.005 -0.102,-0.01 -0.138,-0.016 -0.12,-0.022 -0.351,-0.117 -0.451,-0.187 -0.122,-0.085 -0.304,-0.329 -0.38,-0.457 -0.087,-0.148 -0.201,-0.514 -0.135,-0.673 0.084,-0.202 0.731,-0.484 0.731,-0.484 l 0.135,-0.039 c 0,0 0,0 0,-10e-4 C 79.123,15.636 78.831,14.717 78.295,13.693 77.978,13.088 76.9,11.876 76.9,11.876 L 75.724,10.56 c 0,0 -0.515,-0.468 -1.029,-0.654 -0.406,-0.147 -1.71,-0.243 -1.71,-0.243 0,0 -0.832,0.431 -1.06,0.641 -1.513,1.391 -6.063,6.222 -6.063,6.222 l -0.165,-0.257 c 0,0 -2.146,0.364 -2.865,0.313 -0.316,-0.023 -1.228,-0.317 -1.228,-0.317 l -19.948,12.48 c -1.675,1.408 -1.765,2.481 -1.765,2.481 0,0 -3.483,-0.162 -4.302,1.01 -0.72,1.03 0.31,3.892 0.005,4.541 l -0.709,0.489 -2.096,-0.101 c 0,0 -3.066,-0.14 -4.025,0.793 -0.465,0.453 -0.175,2.081 -0.175,2.081 0,0 1.398,-0.545 2.05,-0.678 0.467,-0.095 1.451,0.02 1.924,0.079 0.504,0.062 1.981,0.235 1.981,0.235 l 0.524,0.394 c 0,0 -1.182,1.29 -1.564,1.951 -0.738,1.279 -1.813,5.176 -2.217,6.693 0,0 7.037,-5.672 8.3,-8.326 1.364,-2.863 0.265,-8.463 0.265,-8.463 l 0.695,-0.059 c 0,0 1.788,4.46 -0.322,8.922 -0.959,2.028 -5.541,6.42 -7.883,8.238 l -2.876,0.744 2.975,4.895 c 0,0 -0.637,15.189 0.022,20.228 0.593,4.528 5.161,17.617 5.161,17.617 l 17.117,-11.191 0.045,-1.773 c 0,0 -4.971,-5.893 -6.253,-8.114 -3.282,-5.685 -4.484,-12.362 -3.179,-14.404 0.359,-0.562 1.097,-1.255 1.542,-1.582 0.498,-0.366 1.635,-0.832 2.229,-0.951 0.552,-0.111 1.664,-0.078 2.196,0.06 0.488,0.127 1.855,0.795 1.855,0.795 0,0 5.908,5.499 13.673,0.837 7.399,-4.442 2.384,-14.041 2.384,-14.041 0,0 0.163,-2.101 1.356,-3.756 0.516,-0.716 4.84,-2.888 4.84,-2.888 z m -13.591,-9.3 0.897,1.478 0.164,0.285 0.991,1.648 -8.155,4.941 c 0,0 -1.771,1.397 -3.049,-0.498 -0.816,-1.209 1.059,-2.907 1.059,-2.907 l 8.093,-4.947 z m -17.1,38.304 c 0.139,1.115 1.917,5.839 3.026,7.541 1.547,2.374 6.049,7.785 6.049,7.785 l -0.044,0.947 -15.642,10.238 c 0,0 -4.125,-11.899 -4.787,-16.84 -0.35,-2.613 0.04,-10.52 0.04,-10.52 l 0.022,-9.258 -2.466,-4.041 c 0,0 3.027,-0.68 3.635,-0.743 1.25,-0.13 3.858,0.222 4.955,0.835 0.996,0.556 2.527,1.956 3.295,3.154 0.272,0.424 0.836,1.832 0.836,1.832 l 0.703,1.685 c 0,0 -0.36,1.702 -0.37,2.267 -0.022,1.306 0.748,5.118 0.748,5.118 z m -0.298,-34.324 2.197,4.157 -0.298,0.169 -3.044,-4.803 16.244,-10.132 0.706,1.202 -0.973,0.579 -0.167,-0.251 -14.665,9.079 z m 7.791,13.694 -2.866,-4.548 0.319,-0.192 2.68,3.733 14.636,-8.85 -2.424,-4.429 0.688,-0.551 3.528,5.864 -15.42,9.682 -1.141,-0.709 z m 17.24,4.491 c 0.004,1.253 -0.058,2.417 -0.688,3.737 0,0 -1.948,4.772 -9.478,4.389 -3.791,-0.193 -5.942,-3.055 -5.942,-3.055 0,0 0.004,-2.736 0.329,-3.571 0.513,-1.318 3.309,-3.978 4.55,-4.953 1.175,-0.923 1.369,-1.077 3.338,-1.981 0.651,-0.299 1.526,-0.649 2.413,-0.747 0.711,-0.079 2.085,-0.078 2.648,0.031 0.315,0.061 1.215,0.414 1.215,0.414 0,0 1.606,3.046 1.615,5.736 z"
       inkscape:connector-curvature="0"
       style="fill:#9197ab" /><path
       id="path4224"
       d="m 64.796,52.385 c -0.377,-0.096 -0.933,-0.219 -1.599,-0.627 -0.26,-0.159 -0.503,-0.442 -0.719,-0.657 -0.22,-0.219 -0.46,-0.492 -0.616,-0.694 C 61.637,50.116 61.299,49.519 61.191,49.222 61.117,49.016 61,48.744 60.952,48.53 60.842,48.04 60.935,47.256 60.904,46.998 60.856,46.602 60.726,45.413 60.726,45.413 l -0.462,-0.979 c 0,0 -1.732,1.154 -2.439,1.849 -0.671,0.66 -2.652,2.671 -2.652,2.671 l -0.307,0.417 c 0,0 0.524,0.18 0.706,0.183 0.725,0.01 2.827,-0.649 2.827,-0.649 0,0 1.031,1.991 1.533,2.536 0.561,0.608 1.918,1.623 2.684,1.938 0.466,0.191 1.487,0.31 1.991,0.308 0.64,-0.002 2.526,-0.41 2.526,-0.41 l 0.969,-1.069 c 0,0 -1.73,0.198 -2.22,0.214 -0.272,0.006 -0.642,0.075 -1.086,-0.037 z"
       inkscape:connector-curvature="0"
       style="fill:#9197ab" /></g><path
     id="path2890"
     inkscape:connector-curvature="0"
     sodipodi:nodetypes="cccccssssss"
     style="fill:#1a1a1a;stroke:#000000;stroke-width:0.9253px;filter:url(#filter3924)"
     d="m 146.39,182.88 c 105.64,0.26112 305.23,1.2229 305.23,1.2229 l 2.4697,79.701 19.646,0 0.74512,-80.159 101.62,0.45859 c 5.2676,0.0238 9.0718,-6.6521 8.93,-11.159 -0.1474,-4.6864 -4.5242,-11.165 -10.002,-11.159 -130.18,0.14154 -298.68,-1.4405 -428.64,-1.2229 -5.1368,0.009 -11.327,6.7633 -11.43,11.159 -0.10076,4.2905 6.4166,11.147 11.43,11.159 z"
     transform="matrix(0.2657447,-0.26637055,0.26637055,0.2657447,380.57027,719.44065)" /><g
     id="g4909"><path
       transform="matrix(0.2657447,-0.26637055,0.26637055,0.2657447,381.23351,717.82453)"
       inkscape:connector-curvature="0"
       sodipodi:nodetypes="cszcz"
       d="m 476.32,267.65 c 0.25759,6.4259 -7.2881,12.574 -15.967,12.574 -8.6788,0 -15.919,-6.5566 -15.714,-12.574 0.20436,-6.0174 8.0491,-5.9697 13.947,-6.1872 5.5179,0.21287 17.482,-0.11268 17.735,6.1872 z"
       style="color:#000000;fill:url(#linearGradient3836);stroke:#000000;stroke-linecap:round;stroke-linejoin:round;filter:url(#filter3924)"
       id="path2892" /><rect
       transform="matrix(0.2657447,-0.26637055,0.26637055,0.2657447,380.57027,719.44065)"
       x="479.89001"
       y="162.23"
       width="1.6386"
       height="21.084"
       ry="5.0184999"
       rx="2.0197999"
       style="color:#000000;fill:#4d4d4d;stroke:#000000;stroke-width:0.62405998;stroke-linecap:round;stroke-linejoin:round;filter:url(#filter3924)"
       id="rect3682" /><rect
       transform="matrix(0.2657447,-0.26637055,0.26637055,0.2657447,380.57027,719.44065)"
       x="572.82001"
       y="162.36"
       width="1.6386"
       height="21.084"
       ry="5.0184999"
       rx="2.0197999"
       style="color:#000000;fill:#4d4d4d;stroke:#000000;stroke-width:0.62405998;stroke-linecap:round;stroke-linejoin:round;filter:url(#filter3924)"
       id="rect3684" /><rect
       transform="matrix(0.2657447,-0.26637055,0.26637055,0.2657447,380.57027,719.44065)"
       x="564.48999"
       y="162.36"
       width="1.6386"
       height="21.084"
       ry="5.0184999"
       rx="2.0197999"
       style="color:#000000;fill:#4d4d4d;stroke:#000000;stroke-width:0.62405998;stroke-linecap:round;stroke-linejoin:round;filter:url(#filter3924)"
       id="rect3686" /><rect
       transform="matrix(0.2657447,-0.26637055,0.26637055,0.2657447,380.57027,719.44065)"
       x="556.28003"
       y="162.36"
       width="1.6386"
       height="21.084"
       ry="5.0184999"
       rx="2.0197999"
       style="color:#000000;fill:#4d4d4d;stroke:#000000;stroke-width:0.62405998;stroke-linecap:round;stroke-linejoin:round;filter:url(#filter3924)"
       id="rect3688" /><rect
       transform="matrix(0.2657447,-0.26637055,0.26637055,0.2657447,380.57027,719.44065)"
       x="547.44"
       y="162.23"
       width="1.6386"
       height="21.084"
       ry="5.0184999"
       rx="2.0197999"
       style="color:#000000;fill:#4d4d4d;stroke:#000000;stroke-width:0.62405998;stroke-linecap:round;stroke-linejoin:round;filter:url(#filter3924)"
       id="rect3690" /><rect
       transform="matrix(0.2657447,-0.26637055,0.26637055,0.2657447,380.57027,719.44065)"
       x="538.47998"
       y="162.48"
       width="1.6386"
       height="21.084"
       ry="5.0184999"
       rx="2.0197999"
       style="color:#000000;fill:#4d4d4d;stroke:#000000;stroke-width:0.62405998;stroke-linecap:round;stroke-linejoin:round;filter:url(#filter3924)"
       id="rect3692" /><rect
       transform="matrix(0.2657447,-0.26637055,0.26637055,0.2657447,380.57027,719.44065)"
       x="529.89001"
       y="162.48"
       width="1.6386"
       height="21.084"
       ry="5.0184999"
       rx="2.0197999"
       style="color:#000000;fill:#4d4d4d;stroke:#000000;stroke-width:0.62405998;stroke-linecap:round;stroke-linejoin:round;filter:url(#filter3924)"
       id="rect3694" /><rect
       transform="matrix(0.2657447,-0.26637055,0.26637055,0.2657447,380.57027,719.44065)"
       x="521.42999"
       y="162.23"
       width="1.6386"
       height="21.084"
       ry="5.0184999"
       rx="2.0197999"
       style="color:#000000;fill:#4d4d4d;stroke:#000000;stroke-width:0.62405998;stroke-linecap:round;stroke-linejoin:round;filter:url(#filter3924)"
       id="rect3696" /><rect
       transform="matrix(0.2657447,-0.26637055,0.26637055,0.2657447,380.57027,719.44065)"
       x="513.09998"
       y="162.48"
       width="1.6386"
       height="21.084"
       ry="5.0184999"
       rx="2.0197999"
       style="color:#000000;fill:#4d4d4d;stroke:#000000;stroke-width:0.62405998;stroke-linecap:round;stroke-linejoin:round;filter:url(#filter3924)"
       id="rect3698" /><rect
       transform="matrix(0.2657447,-0.26637055,0.26637055,0.2657447,380.57027,719.44065)"
       x="505.26999"
       y="162.48"
       width="1.6386"
       height="21.084"
       ry="5.0184999"
       rx="2.0197999"
       style="color:#000000;fill:#4d4d4d;stroke:#000000;stroke-width:0.62405998;stroke-linecap:round;stroke-linejoin:round;filter:url(#filter3924)"
       id="rect3700" /><rect
       transform="matrix(0.2657447,-0.26637055,0.26637055,0.2657447,380.57027,719.44065)"
       x="496.67999"
       y="161.98"
       width="1.6386"
       height="21.084"
       ry="5.0184999"
       rx="2.0197999"
       style="color:#000000;fill:#4d4d4d;stroke:#000000;stroke-width:0.62405998;stroke-linecap:round;stroke-linejoin:round;filter:url(#filter3924)"
       id="rect3702" /><rect
       transform="matrix(0.2657447,-0.26637055,0.26637055,0.2657447,380.57027,719.44065)"
       x="488.35001"
       y="162.23"
       width="1.6386"
       height="21.084"
       ry="5.0184999"
       rx="2.0197999"
       style="color:#000000;fill:#4d4d4d;stroke:#000000;stroke-width:0.62405998;stroke-linecap:round;stroke-linejoin:round;filter:url(#filter3924)"
       id="rect3704" /><rect
       x="257.92999"
       y="-473.70999"
       width="1.6576999"
       height="19.587999"
       transform="matrix(0.26637055,0.2657447,-0.2657447,0.26637055,380.57027,719.44065)"
       rx="2.0197999"
       style="color:#000000;fill:#4d4d4d;stroke:#000000;stroke-width:0.60500002;stroke-linecap:round;stroke-linejoin:round;filter:url(#filter3924)"
       ry="5.0184999"
       id="rect3706" /><rect
       x="251.24001"
       y="-473.45001"
       width="1.6593"
       height="19.462999"
       ry="5.0184999"
       rx="2.0197999"
       transform="matrix(0.26637055,0.2657447,-0.2657447,0.26637055,380.57027,719.44065)"
       style="color:#000000;fill:#4d4d4d;stroke:#000000;stroke-width:0.60337001;stroke-linecap:round;stroke-linejoin:round;filter:url(#filter3924)"
       id="rect3708" /><rect
       x="244.42999"
       y="-474.20999"
       width="1.6465"
       height="20.461"
       transform="matrix(0.26637055,0.2657447,-0.2657447,0.26637055,380.57027,719.44065)"
       rx="2.0197999"
       style="color:#000000;fill:#4d4d4d;stroke:#000000;stroke-width:0.61623001;stroke-linecap:round;stroke-linejoin:round;filter:url(#filter3924)"
       ry="5.0184999"
       id="rect3710" /><rect
       x="237.61"
       y="-474.32999"
       width="1.6386"
       height="21.084"
       ry="5.0184999"
       rx="2.0197999"
       transform="matrix(0.26637055,0.2657447,-0.2657447,0.26637055,380.57027,719.44065)"
       style="color:#000000;fill:#4d4d4d;stroke:#000000;stroke-width:0.62405998;stroke-linecap:round;stroke-linejoin:round;filter:url(#filter3924)"
       id="rect3712" /><rect
       x="231.3"
       y="-474.20001"
       width="1.6386"
       height="21.084"
       transform="matrix(0.26637055,0.2657447,-0.2657447,0.26637055,380.57027,719.44065)"
       rx="2.0197999"
       style="color:#000000;fill:#4d4d4d;stroke:#000000;stroke-width:0.62405998;stroke-linecap:round;stroke-linejoin:round;filter:url(#filter3924)"
       ry="5.0184999"
       id="rect3714" /><rect
       x="225.24001"
       y="-474.20001"
       width="1.6386"
       height="21.084"
       ry="5.0184999"
       rx="2.0197999"
       transform="matrix(0.26637055,0.2657447,-0.2657447,0.26637055,380.57027,719.44065)"
       style="color:#000000;fill:#4d4d4d;stroke:#000000;stroke-width:0.62405998;stroke-linecap:round;stroke-linejoin:round;filter:url(#filter3924)"
       id="rect3716" /><rect
       x="218.92"
       y="-473.82001"
       width="1.6386"
       height="21.084"
       transform="matrix(0.26637055,0.2657447,-0.2657447,0.26637055,380.57027,719.44065)"
       rx="2.0197999"
       style="color:#000000;fill:#4d4d4d;stroke:#000000;stroke-width:0.62405998;stroke-linecap:round;stroke-linejoin:round;filter:url(#filter3924)"
       ry="5.0184999"
       id="rect3718" /><rect
       x="212.86"
       y="-474.07999"
       width="1.6386"
       height="21.084"
       ry="5.0184999"
       rx="2.0197999"
       transform="matrix(0.26637055,0.2657447,-0.2657447,0.26637055,380.57027,719.44065)"
       style="color:#000000;fill:#4d4d4d;stroke:#000000;stroke-width:0.62405998;stroke-linecap:round;stroke-linejoin:round;filter:url(#filter3924)"
       id="rect3720" /><rect
       x="206.67999"
       y="-473.82001"
       width="1.6386"
       height="21.084"
       transform="matrix(0.26637055,0.2657447,-0.2657447,0.26637055,380.57027,719.44065)"
       rx="2.0197999"
       style="color:#000000;fill:#4d4d4d;stroke:#000000;stroke-width:0.62405998;stroke-linecap:round;stroke-linejoin:round;filter:url(#filter3924)"
       ry="5.0184999"
       id="rect3722" /><rect
       x="200.87"
       y="-473.95001"
       width="1.6386"
       height="21.084"
       ry="5.0184999"
       rx="2.0197999"
       transform="matrix(0.26637055,0.2657447,-0.2657447,0.26637055,380.57027,719.44065)"
       style="color:#000000;fill:#4d4d4d;stroke:#000000;stroke-width:0.62405998;stroke-linecap:round;stroke-linejoin:round;filter:url(#filter3924)"
       id="rect3724" /><rect
       x="194.81"
       y="-473.82001"
       width="1.6386"
       height="21.084"
       transform="matrix(0.26637055,0.2657447,-0.2657447,0.26637055,380.57027,719.44065)"
       rx="2.0197999"
       style="color:#000000;fill:#4d4d4d;stroke:#000000;stroke-width:0.62405998;stroke-linecap:round;stroke-linejoin:round;filter:url(#filter3924)"
       ry="5.0184999"
       id="rect3726" /><rect
       x="188.75"
       y="-473.57001"
       width="1.6386"
       height="21.084"
       ry="5.0184999"
       rx="2.0197999"
       transform="matrix(0.26637055,0.2657447,-0.2657447,0.26637055,380.57027,719.44065)"
       style="color:#000000;fill:#4d4d4d;stroke:#000000;stroke-width:0.62405998;stroke-linecap:round;stroke-linejoin:round;filter:url(#filter3924)"
       id="rect3728" /><path
       transform="matrix(0.2657447,-0.26637055,0.26637055,0.2657447,380.57027,719.44065)"
       d="m 451.61,183.79 9.2857,-15"
       style="fill:none;stroke:#000000;stroke-width:1px;filter:url(#filter3924)"
       sodipodi:nodetypes="cc"
       inkscape:connector-curvature="0"
       id="path3730" /><path
       transform="matrix(0.2657447,-0.26637055,0.26637055,0.2657447,380.57027,719.44065)"
       d="m 465.71,169.15 9.1072,14.464"
       style="fill:none;stroke:#000000;stroke-width:1px;filter:url(#filter3924)"
       sodipodi:nodetypes="cc"
       inkscape:connector-curvature="0"
       id="path3732" /><path
       sodipodi:start="0"
       sodipodi:end="3.2245774"
       sodipodi:cx="49.497475"
       sodipodi:cy="112.41524"
       transform="matrix(0.28120126,0.25000004,-0.25000004,0.28120126,480.08411,681.12832)"
       inkscape:transform-center-y="-2.5253814"
       inkscape:transform-center-x="-6.8117331"
       d="m 58.083772,112.41524 a 8.586297,12.121831 0 0 1 -4.500455,10.66143 8.586297,12.121831 0 0 1 -8.783593,-0.51482 8.586297,12.121831 0 0 1 -3.858999,-11.15139 l 8.55675,1.00478 z"
       sodipodi:type="arc"
       style="color:#000000;opacity:0.35593004;fill:#333333;filter:url(#filter3884)"
       sodipodi:ry="12.121831"
       sodipodi:rx="8.586297"
       id="path3734" /><path
       transform="matrix(0.2657447,-0.26637055,0.26637055,0.2657447,380.57027,719.44065)"
       d="m 191.93,166.46 c 6.0609,-0.50508 294.96,3.5355 294.96,3.5355 l 89.904,-1.0102 -0.50507,-5.0508 -384.36,2.5254 z"
       inkscape:connector-curvature="0"
       style="opacity:0.10728;fill:#999999;filter:url(#filter3786)"
       id="path3768" /><ellipse
       transform="matrix(0.3306927,-0.33147151,0.53042368,0.52917742,297.31128,711.41316)"
       style="color:#000000;opacity:0.37966003;fill:#333333;filter:url(#filter3880)"
       id="path3790"
       cx="577.55475"
       cy="173.52946"
       rx="1.8263987"
       ry="1.7239583" /><rect
       transform="matrix(0.2657447,-0.26637055,0.26637055,0.2657447,380.57027,719.44065)"
       x="460.70999"
       y="168.25999"
       width="6.25"
       height="91.070999"
       ry="5.0184999"
       rx="2.0197999"
       style="color:#000000;opacity:0.27119003;fill:#333333;filter:url(#filter3864)"
       id="rect3858" /><ellipse
       transform="matrix(0.2657447,-0.26637055,0.26637055,0.2657447,380.57027,719.44065)"
       style="color:#000000;opacity:0.27119003;fill:#333333;filter:url(#filter3876)"
       id="path3868"
       cx="456.51785"
       cy="266.46933"
       rx="2.5892856"
       ry="2.3214285" /><ellipse
       transform="matrix(0.2657447,-0.26637055,0.26637055,0.2657447,380.57027,719.44065)"
       style="color:#000000;opacity:0.27119003;fill:#333333;filter:url(#filter3872)"
       id="path3870"
       cx="470.71429"
       cy="268.79074"
       rx="2.6785715"
       ry="4.4642859" /></g><g
     transform="matrix(0.84166747,-0.53999618,0.53999618,0.84166747,-733.82445,523.36006)"
     id="g5763"><path
       d="m 632,412.09 c -3.324,0 -6,2.676 -6,6 l 0,56.5 c 0,3.324 2.676,6 6,6 l 91.75,0 c 3.324,0 6,-2.676 6,-6 l 0,-56.5 c 0,-3.324 -2.676,-6 -6,-6 l -91.75,0 z"
       style="color:#000000;fill:none;stroke:#000000;stroke-width:5"
       id="path5765"
       inkscape:connector-curvature="0" /><g
       transform="translate(-98.995,-46.669)"
       id="g5767"><rect
         x="725"
         y="458.75"
         width="103.75"
         height="68.5"
         ry="6"
         rx="6"
         style="color:#000000;fill:url(#linearGradient6474);stroke:#e6e6e6;stroke-width:2"
         id="rect5769" /><rect
         x="737.38"
         y="465"
         width="79"
         height="52"
         ry="0"
         rx="0"
         style="color:#000000;fill:url(#radialGradient5685);stroke:#1a1a1a"
         id="rect5771" /></g><path
       d="m 632,412.09 c -3.324,0 -6,2.676 -6,6 l 0,56.5 c 0,3.324 2.676,6 6,6 l 91.75,0 c 3.324,0 6,-2.676 6,-6 l 0,-56.5 c 0,-3.324 -2.676,-6 -6,-6 l -91.75,0 z"
       style="color:#000000;fill:none;stroke:#ffffff"
       id="path5773"
       inkscape:connector-curvature="0" /></g><g
     id="layer1"
     transform="matrix(0.27586029,0,0,0.27586029,412.6572,262.68127)"
     inkscape:transform-center-x="104.50928"
     inkscape:transform-center-y="22.941068"><g
       id="g5413"
       transform="translate(4.0406,-68.69)"><path
         style="fill:url(#linearGradient5419)"
         inkscape:connector-curvature="0"
         id="path3054"
         d="m 404.25,693.33 c 205.07,93.329 322.49,-370.73 92.036,-351.88 -52.37,12.89 -118.11,23.937 -187.14,1.6726 -242.8,-24.351 -95.055,436.5 95.1,350.21 z" /><path
         style="fill:url(#linearGradient5421)"
         inkscape:connector-curvature="0"
         id="path3064"
         d="m 426.79,265.96 c -8.1595,-24.063 -9.0009,-33.491 -5.0508,-33.335 23.513,-4.567 32.962,10.557 43.437,24.244 -14.542,0.5411 -19.918,6.3201 -25.254,12.122 -17.628,32.357 -19.297,56.634 -26.264,82.327 l -27.274,2.0203 c 20.262,-19.774 29.904,-59.692 40.406,-87.378 z" /><path
         style="fill:url(#linearGradient5423)"
         inkscape:connector-curvature="0"
         id="path3066"
         d="m 410.12,307.88 c -17.615,-70.003 -86.197,-92.056 -140.92,-78.287 -92.792,23.349 71.872,94.905 140.92,78.287 z" /><path
         style="fill:none;stroke:#3bae28;stroke-width:1px"
         inkscape:connector-curvature="0"
         id="path3070"
         d="M 390.93,294.24 C 329.96,252.01 299.83,248.92 255.57,245.76" /></g></g><g
     id="g5062"
     transform="matrix(0.26441755,0,0,0.26441755,313.60546,164.53278)"><g
       id="g5064"><g
         id="g5066"><g
           id="g5068"><path
             inkscape:connector-curvature="0"
             style="fill:#010002"
             d="M 227.996,0 C 102.081,0 0,102.081 0,227.996 0,353.941 102.081,455.992 227.996,455.992 353.941,455.992 455.992,353.941 455.992,227.996 455.992,102.081 353.941,0 227.996,0 Z m 0,425.593 c -108.952,0 -197.597,-88.645 -197.597,-197.597 0,-108.952 88.645,-197.597 197.597,-197.597 108.952,0 197.597,88.645 197.597,197.597 0,108.952 -88.645,197.597 -197.597,197.597 z"
             id="path5070" /><path
             inkscape:connector-curvature="0"
             style="fill:#010002"
             d="m 312.142,122.358 -83.538,83.568 -74.965,-83.568 c -5.928,-5.928 -15.565,-5.928 -21.492,0 -5.928,5.928 -5.928,15.565 0,21.492 l 74.965,83.568 -84.723,84.723 c -5.928,5.928 -5.928,15.595 0,21.492 5.928,5.928 15.565,5.928 21.492,0 l 83.568,-83.538 74.965,83.538 c 5.897,5.928 15.565,5.928 21.462,0 5.928,-5.898 5.928,-15.565 0,-21.492 l -74.995,-83.538 84.723,-84.754 c 5.928,-5.928 5.928,-15.565 0,-21.492 -5.928,-5.927 -15.534,-5.927 -21.462,0.001 z"
             id="path5072" /></g></g></g><g
       id="g5074" /><g
       id="g5076" /><g
       id="g5078" /><g
       id="g5080" /><g
       id="g5082" /><g
       id="g5084" /><g
       id="g5086" /><g
       id="g5088" /><g
       id="g5090" /><g
       id="g5092" /><g
       id="g5094" /><g
       id="g5096" /><g
       id="g5098" /><g
       id="g5100" /><g
       id="g5102" /></g><g
     id="g5104"
     transform="matrix(0.26441755,0,0,0.26441755,1028.7979,-27.66364)" /><g
     id="g5106"
     transform="matrix(0.26441755,0,0,0.26441755,1028.7979,-27.66364)" /><g
     id="g5108"
     transform="matrix(0.26441755,0,0,0.26441755,1028.7979,-27.66364)" /><g
     id="g5110"
     transform="matrix(0.26441755,0,0,0.26441755,1028.7979,-27.66364)" /><g
     id="g5112"
     transform="matrix(0.26441755,0,0,0.26441755,1028.7979,-27.66364)" /><g
     id="g5114"
     transform="matrix(0.26441755,0,0,0.26441755,1028.7979,-27.66364)" /><g
     id="g5116"
     transform="matrix(0.26441755,0,0,0.26441755,1028.7979,-27.66364)" /><g
     id="g5118"
     transform="matrix(0.26441755,0,0,0.26441755,1028.7979,-27.66364)" /><g
     id="g5120"
     transform="matrix(0.26441755,0,0,0.26441755,1028.7979,-27.66364)" /><g
     id="g5122"
     transform="matrix(0.26441755,0,0,0.26441755,1028.7979,-27.66364)" /><g
     id="g5124"
     transform="matrix(0.26441755,0,0,0.26441755,1028.7979,-27.66364)" /><g
     id="g5126"
     transform="matrix(0.26441755,0,0,0.26441755,1028.7979,-27.66364)" /><g
     id="g5128"
     transform="matrix(0.26441755,0,0,0.26441755,1028.7979,-27.66364)" /><g
     id="g5130"
     transform="matrix(0.26441755,0,0,0.26441755,1028.7979,-27.66364)" /><g
     id="g5132"
     transform="matrix(0.26441755,0,0,0.26441755,1028.7979,-27.66364)" /></svg>