<?xml version="1.0" encoding="utf-8"?>
<!-- Generator: Adobe Illustrator 15.1.0, SVG Export Plug-In . SVG Version: 6.00 Build 0)  -->
<!DOCTYPE svg PUBLIC "-//W3C//DTD SVG 1.1//EN" "http://www.w3.org/Graphics/SVG/1.1/DTD/svg11.dtd" [
	<!ENTITY ns_extend "http://ns.adobe.com/Extensibility/1.0/">
	<!ENTITY ns_ai "http://ns.adobe.com/AdobeIllustrator/10.0/">
	<!ENTITY ns_graphs "http://ns.adobe.com/Graphs/1.0/">
	<!ENTITY ns_vars "http://ns.adobe.com/Variables/1.0/">
	<!ENTITY ns_imrep "http://ns.adobe.com/ImageReplacement/1.0/">
	<!ENTITY ns_sfw "http://ns.adobe.com/SaveForWeb/1.0/">
	<!ENTITY ns_custom "http://ns.adobe.com/GenericCustomNamespace/1.0/">
	<!ENTITY ns_adobe_xpath "http://ns.adobe.com/XPath/1.0/">
]>
<svg version="1.1" id="Layer_1" xmlns:x="&ns_extend;" xmlns:i="&ns_ai;" xmlns:graph="&ns_graphs;"
	 xmlns="http://www.w3.org/2000/svg" xmlns:xlink="http://www.w3.org/1999/xlink" x="0px" y="0px" width="792px" height="612px"
	 viewBox="0 0 792 612" enable-background="new 0 0 792 612" xml:space="preserve">

  <view id="settings" viewBox="400 0 300 300" />
  <view id="inventory" viewBox="50 0 300 300" />
  <view id="left-hand" viewBox="50 300 300 300" />
  <view id="right-hand" viewBox="400 300 300 300" />
  
  <switch>
  
  <g i:extraneous="self">
		<g id="right_hand_1_">
			<path fill="none" stroke="#010101" stroke-width="7.4781" stroke-miterlimit="10" d="M578.292,396.315
				c-3.48-9.116-8.506-14.278-15.894-11.765c-6.328,2.016-8.203,8.515-7.151,13.506l21.274,56.62h-1.297L545.719,373.8
				c-4.997-14.034-15.162-11.617-17.817-10.912c-5.235,1.392-9.914,7.702-8.46,14.013l29.604,77.776h-0.879
				c0,0-33.331-89.771-34.53-93.965c-3.271-11.448-9.19-11.819-15.525-11.43c-7.088,0.437-11.168,8.125-9.925,13.749
				c2.309,8.41,33.804,91.646,33.804,91.646h-1.073c0,0-29.007-74.424-30.272-78.598c-2.323-6.065-5.081-15.156-17.364-13.534
				c-11.036,1.456-10.775,11.379-9.905,14.164c0.649,2.083,32.721,87.09,32.721,87.09v36.303v4.492
				c-7.568-0.081-16.458-17.195-16.458-17.195s2.166-11.321,2.166-17.982c0-6.665-5.645-24.496-18.938-22.546
				c-5.356,0.784-8.727,3.905-8.727,8.725L450.1,502.77c0,4.818,12.245,47.517,42.628,59.67c5.734,2.292,16.017,6.83,21.961,7.637
				c5.942,0.805,39.726,3.451,52.047-0.962c13.049-4.674,26.82-10.618,32.376-32.366l0.678-10.083l0.587-67.578
				C600.376,459.087,581.372,404.382,578.292,396.315z"/>
		</g>
		<g id="settings_1_">
			<g display="none">
				
					<circle display="inline" fill="none" stroke="#010101" stroke-width="4.0925" stroke-miterlimit="10" cx="543.567" cy="56.004" r="32.218"/>
				
					<circle display="inline" fill="none" stroke="#010101" stroke-width="4.0925" stroke-miterlimit="10" cx="634.851" cy="141.917" r="32.218"/>
				
					<circle display="inline" fill="none" stroke="#010101" stroke-width="4.0925" stroke-miterlimit="10" cx="436.176" cy="115.069" r="32.218"/>
				
					<circle display="inline" fill="none" stroke="#010101" stroke-width="4.0925" stroke-miterlimit="10" cx="457.653" cy="238.57" r="32.218"/>
				
					<circle display="inline" fill="none" stroke="#010101" stroke-width="4.0925" stroke-miterlimit="10" cx="581.154" cy="254.678" r="32.218"/>
			</g>
			
				<circle display="none" fill="none" stroke="#010101" stroke-width="5.3983" stroke-miterlimit="10" cx="530.144" cy="160.711" r="138.118"/>
			<circle fill="none" stroke="#010101" stroke-width="8.3527" stroke-miterlimit="10" cx="530.078" cy="160.355" r="38.406"/>
			<path fill="none" stroke="#010101" stroke-width="8.0327" stroke-miterlimit="10" d="M633.153,210.642l12.144-43.521
				l-32.388-18.419l-0.036,0.126c-0.445-3.231-1.071-6.405-1.876-9.507l23.221-27.962l-26.723-36.435l-34.097,13.931
				c-4.593-2.789-9.477-5.147-14.593-7.02l5.15,0.13l-8.122-36.364l-45.168-1.141l-9.947,35.907l4.641,0.118
				c-5.644,1.745-11.028,4.074-16.092,6.912l2.167-2.443l-33.04-17.223l-29.98,33.805l21.048,30.745l3.286-3.707
				c-2.217,5.387-3.891,11.053-4.945,16.936l-33.636,14.625l7.427,44.569l37.142,2.971l-0.865-5.188
				c2.935,5.018,6.373,9.704,10.253,13.985l-8.883,35.668l39.904,19.771l24.958-27.666l-1.201-0.607
				c2.366,0.201,4.759,0.31,7.177,0.31c2.687,0,5.343-0.132,7.965-0.38l-1.949,1.012l24.688,27.907l40.092-20.838l-8.491-35.573
				c1.83-2.045,3.561-4.181,5.184-6.399L633.153,210.642z"/>
			<path fill="none" stroke="#010101" stroke-width="8.3341" stroke-miterlimit="10" d="M575.586,89.625l0.697,1.176
				c-1.924-1.396-3.917-2.72-5.995-3.958c-2.309-1.375-4.663-2.612-7.053-3.724l2.232,0.06"/>
			<path fill="none" stroke="#010101" stroke-width="8.3341" stroke-miterlimit="10" d="M613.668,154.942l-0.502,1.271
				c-0.075-2.375-0.252-4.762-0.548-7.162c-0.329-2.667-0.796-5.285-1.382-7.855l1.32,1.801"/>
			<path fill="none" stroke="#010101" stroke-width="8.3341" stroke-miterlimit="10" d="M592.208,216.282l-1.25,0.554
				c1.612-1.746,3.16-3.572,4.632-5.49c1.636-2.133,3.14-4.326,4.523-6.569l-0.321,2.209"/>
			<path fill="none" stroke="#010101" stroke-width="8.8641" stroke-miterlimit="10" d="M452.702,130.85l0.929-1.108
				c-0.701,2.403-1.305,4.854-1.79,7.356c-0.539,2.781-0.922,5.558-1.166,8.325l-0.758-2.239"/>
			<path fill="none" stroke="#010101" stroke-width="8.8914" stroke-miterlimit="10" d="M459.737,206.477l-0.233-1.43
				c1.366,2.098,2.832,4.152,4.414,6.15c1.759,2.22,3.618,4.318,5.561,6.305l-2.198-0.878"/>
		</g>
		<g id="inventory_1_">
			<path id="bag" fill="none" stroke="#010101" stroke-width="7.1595" stroke-miterlimit="10" d="M312.675,113.279
				c-5.37-37.587-42.957-69.805-91.283-69.805l0,0l0,0l0,0l0,0c-48.326,0-85.914,32.217-91.283,69.805
				c-4.619,32.333-5.37,96.653-5.37,123.5c0,26.848,16.109,42.957,32.218,42.957h64.435l0,0h64.435
				c16.109,0,32.218-16.109,32.218-42.957C318.044,209.932,317.294,145.613,312.675,113.279z"/>
			
				<line id="zipper" fill="none" stroke="#000000" stroke-width="7.1595" stroke-miterlimit="10" x1="156.957" y1="183.084" x2="285.827" y2="183.084"/>
			
				<line id="zipper_pull" display="none" fill="none" stroke="#000000" stroke-width="4.773" stroke-miterlimit="10" x1="269.718" y1="183.084" x2="269.718" y2="199.193"/>
			<path id="pocket" fill="none" stroke="#000000" stroke-width="7.1595" stroke-miterlimit="10" d="M285.827,240.359
				c0,3.954-3.206,7.16-7.159,7.16H164.116c-3.954,0-7.159-3.206-7.159-7.16v-71.594c0-3.954,3.206-7.16,7.159-7.16h114.552
				c3.954,0,7.159,3.206,7.159,7.16V240.359z"/>
			<path id="handle" display="none" fill="none" stroke="#010101" stroke-width="14.3189" stroke-miterlimit="10" d="M242.87,56.003
				c0-13.18-9.617-23.865-21.479-23.865s-21.479,10.685-21.479,23.865"/>
			
				<circle id="circle_1_" fill="none" stroke="#000000" stroke-width="7.1595" stroke-miterlimit="10" cx="221.392" cy="109.699" r="10.739"/>
			<path fill="none" stroke="#000000" stroke-width="7.1595" stroke-miterlimit="10" d="M296.759,76.806
				c0,33.479-33.458,60.618-75.964,60.618s-74.964-27.138-74.964-60.618"/>
		</g>
		<g id="right_hand_2_">
			<path fill="none" stroke="#010101" stroke-width="7.4781" stroke-miterlimit="10" d="M174.339,396.315
				c3.481-9.116,8.506-14.278,15.895-11.765c6.328,2.016,8.203,8.515,7.151,13.506l-21.274,56.62h1.297l29.505-80.877
				c4.997-14.034,15.163-11.617,17.817-10.912c5.235,1.392,9.915,7.702,8.459,14.013l-29.604,77.776h0.879
				c0,0,33.332-89.771,34.531-93.965c3.271-11.448,9.19-11.819,15.525-11.43c7.087,0.437,11.167,8.125,9.924,13.749
				c-2.309,8.41-33.804,91.646-33.804,91.646h1.074c0,0,29.006-74.424,30.272-78.598c2.323-6.065,5.082-15.156,17.365-13.534
				c11.036,1.456,10.775,11.379,9.905,14.164c-0.65,2.083-32.721,87.09-32.721,87.09v36.303v4.492
				c7.568-0.081,16.458-17.195,16.458-17.195s-2.166-11.321-2.166-17.982c0-6.665,5.645-24.496,18.939-22.546
				c5.355,0.784,8.726,3.905,8.726,8.725l4.039,47.175c0,4.818-12.246,47.517-42.627,59.67c-5.734,2.292-16.018,6.83-21.961,7.637
				c-5.943,0.805-39.726,3.451-52.048-0.962c-13.049-4.674-26.82-10.618-32.375-32.366l-0.678-10.083l-0.586-67.578
				C152.256,459.087,171.26,404.382,174.339,396.315z"/>
		</g>
	</g>
</switch>
</svg>
