<?xml version="1.0" encoding="UTF-8" standalone="no"?>
<!-- Generator: Adobe Illustrator 15.1.0, SVG Export Plug-In  -->

<svg
   xmlns:inkpad="http://inkpad.envoza.com/svg_extensions"
   xmlns:dc="http://purl.org/dc/elements/1.1/"
   xmlns:cc="http://creativecommons.org/ns#"
   xmlns:rdf="http://www.w3.org/1999/02/22-rdf-syntax-ns#"
   xmlns:svg="http://www.w3.org/2000/svg"
   xmlns="http://www.w3.org/2000/svg"
   xmlns:sodipodi="http://sodipodi.sourceforge.net/DTD/sodipodi-0.dtd"
   xmlns:inkscape="http://www.inkscape.org/namespaces/inkscape"
   version="1.1"
   x="0px"
   y="0px"
   width="750px"
   height="750px"
   viewBox="0.125 0.125 750 750"
   overflow="visible"
   enable-background="new 0.125 0.125 750 750"
   xml:space="preserve"
   id="svg3531"
   inkscape:version="0.91 r13725"
   sodipodi:docname="whiplash-sprites.svg"><metadata
     id="metadata3670"><rdf:RDF><cc:Work
         rdf:about=""><dc:format>image/svg+xml</dc:format><dc:type
           rdf:resource="http://purl.org/dc/dcmitype/StillImage" /></cc:Work></rdf:RDF></metadata><sodipodi:namedview
     pagecolor="#ffffff"
     bordercolor="#666666"
     borderopacity="1"
     objecttolerance="10"
     gridtolerance="10"
     guidetolerance="10"
     inkscape:pageopacity="0"
     inkscape:pageshadow="2"
     inkscape:window-width="1920"
     inkscape:window-height="1016"
     id="namedview3668"
     showgrid="false"
     inkscape:zoom="1.0822262"
     inkscape:cx="642.95782"
     inkscape:cy="384.98427"
     inkscape:window-x="0"
     inkscape:window-y="27"
     inkscape:window-maximized="1"
     inkscape:current-layer="svg3531" /><defs
     id="defs3533" /><g
     id="g3625"
     transform="translate(-452.17919,2.723971)"><path
       id="path3535"
       d="m 632.014,71.769 c 0,-14.841 9.335,-27.482 22.446,-32.427 l 0,8.393 15.476,-15.476 -15.476,-15.477 0,8.572 c -20.587,5.407 -35.779,24.13 -35.779,46.414 0,22.485 15.463,41.352 36.333,46.565 l 0,-13.916 c -13.406,-4.791 -23,-17.597 -23,-32.648 z"
       inkscape:connector-curvature="0"
       style="fill:#da1c5c" /><path
       id="path3537"
       d="m 720.047,71.348 c 0,14.841 -9.335,27.482 -22.446,32.427 l 0,-8.393 -15.476,15.476 15.476,15.476 0,-8.572 c 20.587,-5.407 35.779,-24.13 35.779,-46.414 0,-22.485 -15.463,-41.352 -36.333,-46.565 l 0,13.916 c 13.405,4.791 23,17.597 23,32.649 z"
       inkscape:connector-curvature="0"
       style="fill:#ee2a7b" /><g
       id="g3539"><g
         id="g3541"><g
           id="g3543"
           enable-background="new    "><g
             id="g3545"><polygon
               id="polygon3547"
               points="698.578,89.421 679.905,96.12 679.772,62.12 698.444,55.421 "
               style="fill:#7f2e6d" /></g><g
             id="g3549"><polygon
               id="polygon3551"
               points="697.01,86.886 678.338,93.585 678.22,63.647 696.893,56.948 "
               style="fill:#fbab19" /></g><g
             id="g3553"><polygon
               id="polygon3555"
               points="678.338,93.585 678.22,63.647 696.893,56.948 697.01,86.886 "
               style="fill:#7f2e6d" /></g><g
             id="g3557"><polygon
               id="polygon3559"
               points="698.444,55.421 679.772,62.12 653.672,53.69 672.345,46.991 "
               style="fill:#932c61" /></g><g
             id="g3561"><polygon
               id="polygon3563"
               points="678.22,63.647 655.24,56.225 673.912,49.526 696.893,56.948 "
               style="fill:#932c61" /></g><g
             id="g3565"><polygon
               id="polygon3567"
               points="696.893,56.948 678.22,63.647 655.24,56.225 673.912,49.526 "
               style="fill:#f8951d" /></g><g
             id="g3569"><polygon
               id="polygon3571"
               points="697.01,86.886 678.338,93.585 655.357,86.163 674.03,79.464 "
               style="fill:#932c61" /></g><g
             id="g3573"><polygon
               id="polygon3575"
               points="678.338,93.585 655.357,86.163 674.03,79.464 697.01,86.886 "
               style="fill:#f8951d" /></g><g
             id="g3577"><polygon
               id="polygon3579"
               points="655.357,86.163 655.24,56.225 673.912,49.526 674.03,79.464 "
               style="fill:#fbab19" /></g><g
             id="g3581"><polygon
               id="polygon3583"
               points="674.03,79.464 655.357,86.163 655.24,56.225 673.912,49.526 "
               style="fill:#7f2e6d" /></g><g
             id="g3585"><polygon
               id="polygon3587"
               points="679.905,96.12 653.806,87.69 672.478,80.992 698.578,89.421 "
               style="fill:#932c61" /></g><g
             id="g3589"><polygon
               id="polygon3591"
               points="653.806,87.69 653.672,53.69 672.345,46.991 672.478,80.992 "
               style="fill:#7f2e6d" /></g></g></g></g></g><g
     id="g3616"
     transform="translate(-446.73125,-0.90798747)"><path
       id="path3593"
       d="m 577.419,100.467 6.209,-22.255 -16.56,-9.419 -0.018,0.064 c -0.229,-1.652 -0.55,-3.275 -0.961,-4.861 L 577.963,49.697 564.3,31.067 546.863,38.19 c -2.348,-1.427 -4.846,-2.632 -7.462,-3.589 l 2.634,0.066 -4.154,-18.595 -23.096,-0.583 -5.088,18.36 2.374,0.061 c -2.886,0.891 -5.639,2.083 -8.228,3.534 l 1.107,-1.249 -16.895,-8.807 -15.329,17.287 10.763,15.721 1.678,-1.895 c -1.133,2.754 -1.988,5.652 -2.527,8.66 l -17.2,7.479 3.797,22.791 18.991,1.52 -0.441,-2.653 c 1.501,2.566 3.26,4.962 5.244,7.15 l -4.543,18.24 20.405,10.109 12.762,-14.146 -0.615,-0.311 c 1.209,0.103 2.433,0.158 3.67,0.158 1.373,0 2.732,-0.067 4.073,-0.194 l -0.998,0.517 12.625,14.271 20.503,-10.655 -4.343,-18.191 c 0.938,-1.044 1.82,-2.137 2.651,-3.271 l 18.198,0.492 z"
       stroke-miterlimit="10"
       inkscape:connector-curvature="0"
       style="fill:#f7941e;stroke:#010101;stroke-width:4.10760021;stroke-miterlimit:10" /><circle
       id="circle3595"
       r="19.639"
       cy="74.751999"
       cx="524.71198"
       stroke-miterlimit="10"
       style="fill:#ffffff;stroke:#010101;stroke-width:4.27120018;stroke-miterlimit:10" /><path
       id="path3597"
       d="m 547.983,38.584 0.356,0.601 c -0.983,-0.713 -2.003,-1.391 -3.065,-2.023 -1.182,-0.704 -2.385,-1.336 -3.607,-1.904 l 1.141,0.031"
       stroke-miterlimit="10"
       inkscape:connector-curvature="0"
       style="fill:none;stroke:#010101;stroke-width:4.26170015;stroke-miterlimit:10" /><path
       id="path3599"
       d="m 567.457,71.985 -0.258,0.65 c -0.038,-1.214 -0.128,-2.436 -0.28,-3.663 -0.167,-1.364 -0.406,-2.703 -0.705,-4.017 l 0.674,0.921"
       stroke-miterlimit="10"
       inkscape:connector-curvature="0"
       style="fill:none;stroke:#010101;stroke-width:4.26170015;stroke-miterlimit:10" /><path
       id="path3601"
       d="m 556.483,103.351 -0.64,0.282 c 0.825,-0.892 1.617,-1.826 2.37,-2.807 0.837,-1.091 1.605,-2.212 2.312,-3.358 l -0.163,1.129"
       stroke-miterlimit="10"
       inkscape:connector-curvature="0"
       style="fill:none;stroke:#010101;stroke-width:4.26170015;stroke-miterlimit:10" /><path
       id="path3603"
       d="m 485.145,59.665 0.475,-0.567 c -0.356,1.229 -0.666,2.482 -0.914,3.762 -0.276,1.421 -0.473,2.841 -0.597,4.257 l -0.388,-1.145"
       stroke-miterlimit="10"
       inkscape:connector-curvature="0"
       style="fill:none;stroke:#010101;stroke-width:4.53270006;stroke-miterlimit:10" /><path
       id="path3605"
       d="m 488.744,98.336 -0.12,-0.73 c 0.699,1.074 1.448,2.124 2.257,3.145 0.898,1.136 1.852,2.208 2.845,3.225 l -1.125,-0.449"
       stroke-miterlimit="10"
       inkscape:connector-curvature="0"
       style="fill:none;stroke:#010101;stroke-width:4.54659986;stroke-miterlimit:10" /></g><path
     stroke-miterlimit="10"
     d="m 493.72679,39.070014 c 1.999,-5.231 5.045,-7.503 9.286,-6.06 1.9,0.663 5.735,2.4 3.599,8.365 l -11.757,32.149 0.745,0 17.893,-47.376 c 2.868,-8.055 8.702,-6.668 10.226,-6.264 3.005,0.799 5.772,3.597 3.725,9.65 l -15.86,43.032 0.505,0 c 0,0 18.924,-50.895 19.611,-53.302 2.107,-4.851 4.332,-7.131 9.118,-6.23 4.786,0.9 5.934,5.276 5.22,8.504 -1.325,4.827 -17.967,50.07 -17.967,50.07 l 0.616,0 c 0,0 12.914,-35.459 14.135,-38.252 3.21,-7.261 6.421,-11.312 11.451,-9.439 5.939,2.213 4.804,8.894 4.305,10.492 -3.189,10.227 -6.678,15.889 -15.534,41.478 l 0,22.751004 c 0,0 0.208,2.481002 0.719,2.873002 3.495,2.678 12.778,-13.148006 12.778,-13.148006 0,0 -1.243,-4.582 -1.243,-8.404 0,-3.826 1.324,-14.06 8.954,-12.941 3.074,0.45 5.009,2.241 5.009,5.006 l 3.275,18.457 c 0,2.765 -11.19,36.959006 -28.628,43.935006 -3.291,1.315 -35.805,1.012 -42.75,-1.851 -5.16,-2.127 -9.462,-11.431 -11.662,-15.807 -2.199,-4.375 -8.459,-16.159 -9.75,-29.665006 -0.911,-9.504 12.216,-43.393 13.981,-48.023 z"
     id="path3607"
     inkscape:connector-curvature="0"
     style="fill:#00aeef;stroke:#010101;stroke-width:4.29199982;stroke-miterlimit:10" /><path
     stroke-miterlimit="10"
     d="m 702.65686,39.070019 c -1.999,-5.231 -5.045,-7.503 -9.286,-6.06 -1.9,0.663 -5.735,2.4 -3.599,8.365 l 11.757,32.149 -0.745,0 -17.893,-47.376 c -2.868,-8.055 -8.702,-6.668 -10.226,-6.264 -3.005,0.799 -5.772,3.597 -3.725,9.65 l 15.86,43.032 -0.503,0 c 0,0 -18.924,-50.895 -19.612,-53.302 -2.107,-4.851 -4.332,-7.131 -9.118,-6.23 -4.786,0.9 -5.934,5.276 -5.22,8.504 1.325,4.827 17.968,50.07 17.968,50.07 l -0.617,0 c 0,0 -12.913,-35.459 -14.135,-38.252 -3.21,-7.261 -6.421,-11.312 -11.451,-9.439 -5.939,2.213 -4.803,8.894 -4.305,10.492 3.188,10.227 6.677,15.889 15.534,41.478 l 0,22.751 c 0,0 -0.208,2.481001 -0.719,2.873001 -3.495,2.678 -12.778,-13.148001 -12.778,-13.148001 0,0 1.243,-4.582 1.243,-8.404 0,-3.826 -1.324,-14.06 -8.954,-12.941 -3.075,0.45 -5.009,2.241 -5.009,5.006 l -3.276,18.457 c 0,2.765 11.19,36.959001 28.628,43.935001 3.291,1.315 35.805,1.012 42.75,-1.851 5.161,-2.127 9.462,-11.431 11.662,-15.807 2.199,-4.375 8.459,-16.159 9.75,-29.665001 0.911,-9.504 -12.215,-43.393 -13.981,-48.023 z"
     id="path3609"
     inkscape:connector-curvature="0"
     style="fill:#00aeef;stroke:#010101;stroke-width:4.29199982;stroke-miterlimit:10" /><path
     id="handle_1_"
     display="none"
     fill="none"
     stroke="#010101"
     stroke-width="14.3189"
     stroke-miterlimit="10"
     d="  M753.125,493.129c0-13.18-9.617-23.865-21.479-23.865s-21.479,10.685-21.479,23.865" /><g
     id="g3609"
     transform="translate(300.5448,-0.90799088)"><path
       d="M 123.937,49.2 C 121.114,29.439 101.354,12.5 75.946,12.5 l 0,0 0,0 0,0 0,0 c -25.407,0 -45.168,16.938 -47.991,36.7 -2.429,16.999 -2.822,50.814 -2.822,64.929 0,14.115 8.468,22.584 16.938,22.584 l 33.876,0 0,0 33.876,0 c 8.469,0 16.938,-8.469 16.938,-22.584 -0.002,-14.114 -0.395,-47.93 -2.824,-64.929 z"
       stroke-miterlimit="10"
       id="bag_2_"
       inkscape:connector-curvature="0"
       style="fill:#ed1c24;stroke:#010101;stroke-width:3.76399994;stroke-miterlimit:10" /><line
       y2="85.899002"
       x2="109.822"
       y1="85.899002"
       x1="42.07"
       stroke-miterlimit="10"
       id="zipper_2_"
       style="fill:none;stroke:#000000;stroke-width:3.76399994;stroke-miterlimit:10" /><path
       d="m 109.822,116.011 c 0,2.079 -1.685,3.764 -3.764,3.764 l -60.225,0 c -2.079,0 -3.764,-1.685 -3.764,-3.764 l 0,-37.64 c 0,-2.079 1.685,-3.765 3.764,-3.765 l 60.225,0 c 2.079,0 3.764,1.686 3.764,3.765 l 0,37.64 z"
       stroke-miterlimit="10"
       id="pocket_2_"
       inkscape:connector-curvature="0"
       style="fill:none;stroke:#000000;stroke-width:3.76399994;stroke-miterlimit:10" /><circle
       r="5.6459999"
       cy="43.112"
       cx="75.945999"
       stroke-miterlimit="10"
       id="circle_1_"
       style="fill:none;stroke:#000000;stroke-width:3.76399994;stroke-miterlimit:10" /><path
       id="path3616"
       d="m 42.07,56.202 c 0,2.079 1.685,3.765 3.764,3.765 l 60.225,0 c 2.079,0 3.764,-1.686 3.764,-3.765 l 0,-31.595 0,0 C 101.215,17.231 89.37,12.5 75.946,12.5 62.522,12.5 50.677,17.231 42.07,24.607 l 0,0 0,31.595 z"
       stroke-miterlimit="10"
       inkscape:connector-curvature="0"
       style="fill:none;stroke:#010101;stroke-width:3.76399994;stroke-miterlimit:10" /></g><rect
     x="0.125"
     y="0.125"
     fill="none"
     stroke="#000000"
     stroke-width="0.25"
     stroke-miterlimit="10"
     width="150"
     height="150"
     id="rect3618" /><rect
     x="150.125"
     y="0.125"
     fill="none"
     stroke="#000000"
     stroke-width="0.25"
     stroke-miterlimit="10"
     width="150"
     height="150"
     id="rect3620" /><rect
     x="300.125"
     y="0.125"
     fill="none"
     stroke="#000000"
     stroke-width="0.25"
     stroke-miterlimit="10"
     width="150"
     height="150"
     id="rect3622" /><rect
     x="450.125"
     y="0.125"
     stroke-miterlimit="10"
     width="150"
     height="150"
     id="rect3624"
     stroke-width="0.25"
     stroke="#000000"
     fill="none" /><rect
     x="600.125"
     y="0.125"
     fill="none"
     stroke="#000000"
     stroke-width="0.25"
     stroke-miterlimit="10"
     width="150"
     height="150"
     id="rect3626" /><rect
     x="0.125"
     y="150.125"
     fill="none"
     stroke="#000000"
     stroke-width="0.25"
     stroke-miterlimit="10"
     width="150"
     height="150"
     id="rect3628" /><rect
     x="150.125"
     y="150.125"
     fill="none"
     stroke="#000000"
     stroke-width="0.25"
     stroke-miterlimit="10"
     width="150"
     height="150"
     id="rect3630" /><rect
     x="300.125"
     y="150.125"
     fill="none"
     stroke="#000000"
     stroke-width="0.25"
     stroke-miterlimit="10"
     width="150"
     height="150"
     id="rect3632" /><rect
     x="450.125"
     y="150.125"
     fill="none"
     stroke="#000000"
     stroke-width="0.25"
     stroke-miterlimit="10"
     width="150"
     height="150"
     id="rect3634" /><rect
     x="600.125"
     y="150.125"
     fill="none"
     stroke="#000000"
     stroke-width="0.25"
     stroke-miterlimit="10"
     width="150"
     height="150"
     id="rect3636" /><rect
     x="0.125"
     y="300.125"
     fill="none"
     stroke="#000000"
     stroke-width="0.25"
     stroke-miterlimit="10"
     width="150"
     height="150"
     id="rect3638" /><rect
     x="150.125"
     y="300.125"
     fill="none"
     stroke="#000000"
     stroke-width="0.25"
     stroke-miterlimit="10"
     width="150"
     height="150"
     id="rect3640" /><rect
     x="300.125"
     y="300.125"
     fill="none"
     stroke="#000000"
     stroke-width="0.25"
     stroke-miterlimit="10"
     width="150"
     height="150"
     id="rect3642" /><rect
     x="450.125"
     y="300.125"
     fill="none"
     stroke="#000000"
     stroke-width="0.25"
     stroke-miterlimit="10"
     width="150"
     height="150"
     id="rect3644" /><rect
     x="600.125"
     y="300.125"
     fill="none"
     stroke="#000000"
     stroke-width="0.25"
     stroke-miterlimit="10"
     width="150"
     height="150"
     id="rect3646" /><rect
     x="0.125"
     y="450.125"
     fill="none"
     stroke="#000000"
     stroke-width="0.25"
     stroke-miterlimit="10"
     width="150"
     height="150"
     id="rect3648" /><rect
     x="150.125"
     y="450.125"
     fill="none"
     stroke="#000000"
     stroke-width="0.25"
     stroke-miterlimit="10"
     width="150"
     height="150"
     id="rect3650" /><rect
     x="300.125"
     y="450.125"
     fill="none"
     stroke="#000000"
     stroke-width="0.25"
     stroke-miterlimit="10"
     width="150"
     height="150"
     id="rect3652" /><rect
     x="450.125"
     y="450.125"
     fill="none"
     stroke="#000000"
     stroke-width="0.25"
     stroke-miterlimit="10"
     width="150"
     height="150"
     id="rect3654" /><rect
     x="600.125"
     y="450.125"
     fill="none"
     stroke="#000000"
     stroke-width="0.25"
     stroke-miterlimit="10"
     width="150"
     height="150"
     id="rect3656" /><rect
     x="0.125"
     y="600.126"
     fill="none"
     stroke="#000000"
     stroke-width="0.25"
     stroke-miterlimit="10"
     width="150"
     height="150"
     id="rect3658" /><rect
     x="150.125"
     y="600.126"
     fill="none"
     stroke="#000000"
     stroke-width="0.25"
     stroke-miterlimit="10"
     width="150"
     height="150"
     id="rect3660" /><rect
     x="300.125"
     y="600.126"
     fill="none"
     stroke="#000000"
     stroke-width="0.25"
     stroke-miterlimit="10"
     width="150"
     height="150"
     id="rect3662" /><rect
     x="450.125"
     y="600.126"
     fill="none"
     stroke="#000000"
     stroke-width="0.25"
     stroke-miterlimit="10"
     width="150"
     height="150"
     id="rect3664" /><rect
     x="600.125"
     y="600.126"
     fill="none"
     stroke="#000000"
     stroke-width="0.25"
     stroke-miterlimit="10"
     width="150"
     height="150"
     id="rect3666" /><path
     inkscape:connector-curvature="0"
     style="fill:#1e201d"
     d="m 500.31297,167.81066 c 1.86391,-2.26474 4.96608,-2.26474 6.89516,0 1.8639,2.18822 1.8639,5.83017 0,8.01329 l -34.96238,41.04582 115.37108,0 c 2.68941,0.005 4.82704,2.51467 4.82704,5.67204 0,3.15737 -2.13763,5.74856 -4.82704,5.74856 l -115.37108,0 34.96238,40.96931 c 1.8639,2.26473 1.8639,5.91178 0,8.0949 -1.92908,2.26474 -5.03559,2.26474 -6.89516,0 L 457.0738,226.59182 c -1.92908,-2.18823 -1.92908,-5.83017 0,-8.0133 l 43.23917,-50.76786 z"
     id="path3766" /><g
     transform="translate(101.51075,491.94659)"
     id="g3768" /><g
     transform="translate(101.51075,491.94659)"
     id="g3770" /><g
     transform="translate(101.51075,491.94659)"
     id="g3772" /><g
     transform="translate(101.51075,491.94659)"
     id="g3774" /><g
     transform="translate(101.51075,491.94659)"
     id="g3776" /><g
     transform="translate(101.51075,491.94659)"
     id="g3778" /><g
     transform="translate(101.51075,491.94659)"
     id="g3780" /><g
     transform="translate(101.51075,491.94659)"
     id="g3782" /><g
     transform="translate(101.51075,491.94659)"
     id="g3784" /><g
     transform="translate(101.51075,491.94659)"
     id="g3786" /><g
     transform="translate(101.51075,491.94659)"
     id="g3788" /><g
     transform="translate(101.51075,491.94659)"
     id="g3790" /><g
     transform="translate(101.51075,491.94659)"
     id="g3792" /><g
     transform="translate(101.51075,491.94659)"
     id="g3794" /><g
     transform="translate(101.51075,491.94659)"
     id="g3796" /><path
     inkscape:connector-curvature="0"
     style="fill:#1e201d"
     d="m 697.57629,168.71864 c -1.86392,-2.26474 -4.96609,-2.26474 -6.89517,0 -1.8639,2.18822 -1.8639,5.83017 0,8.01329 l 34.96239,41.04582 -115.37108,0 c -2.68941,0.005 -4.82704,2.51467 -4.82704,5.67204 0,3.15737 2.13763,5.74856 4.82704,5.74856 l 115.37108,0 -34.96239,40.96931 c -1.8639,2.26473 -1.8639,5.91178 0,8.0949 1.92908,2.26474 5.03559,2.26474 6.89517,0 l 43.23917,-50.76276 c 1.92908,-2.18823 1.92908,-5.83017 0,-8.0133 l -43.23917,-50.76786 z"
     id="path3766-3" /><g
     id="g3560"
     transform="matrix(0.42670642,-0.14106212,0.14106212,0.42670642,70.981275,636.12874)"><g
       id="g3683"
       transform="matrix(0.31328449,-0.94965932,0.94965932,0.31328449,-84.377329,50.235878)"><path
         style="opacity:1;fill:#f4a300;stroke:#000000;stroke-width:7.59651995;stroke-linecap:round;stroke-linejoin:round"
         inkscape:connector-curvature="0"
         id="path3531"
         d="m -133.45305,11.460671 252,0 0,143.999999 -252,0 0,-143.999999 z" /><path
         style="opacity:1;fill:#000000"
         inkscape:connector-curvature="0"
         id="path3533"
         d="m -98.711047,49.977671 215.999997,0 0,36 -215.999997,0 0,-36 z" /><path
         style="opacity:1;fill:#0895ef"
         inkscape:connector-curvature="0"
         id="path3535-3"
         d="m -28.046047,49.977671 37.3349997,0 0,36 -37.3349997,0 0,-36 z" /><path
         style="opacity:1;fill:#ca82f4"
         inkscape:connector-curvature="0"
         id="path3537-6"
         d="m 15.085953,49.977671 24.33,0 0,36 -24.33,0 0,-36 z" /><path
         style="opacity:1;fill:#c64104"
         inkscape:connector-curvature="0"
         id="path3539"
         d="m 45.288953,49.977671 14.682,0 0,36 -14.682,0 0,-36 z" /><path
         style="opacity:1;fill:#bd6d00"
         inkscape:connector-curvature="0"
         id="path3541"
         d="m 66.606953,49.977671 14.682,0 0,36 -14.682,0 0,-36 z" /><text
         style="font-size:19px;font-family:HelveticaNeue-Bold;text-anchor:start;opacity:1;fill:#000000"
         id="text3545"
         inkpad:width="150.292"
         font-size="19"
         inkpad:text="|||| || ||||| ||||||||||| ||| ||"
         y="89.84668"
         x="-97.87204"><tspan
           id="tspan3547"
           textLength="140.809"
           y="108.84668"
           x="-97.87204"><![CDATA[|||| || ||||| ||||||||||| ||| ||]]></tspan></text>
</g></g><g
     id="g4509"
     mask="none"><path
       style="opacity:1;fill:#5e3f30;stroke:#000000;stroke-width:2.19269252;stroke-linejoin:round;image-rendering:auto"
       inkscape:connector-curvature="0"
       d="m 210.91214,673.06933 -12.12543,10.51404 c -1.95229,4.04049 -4.70212,7.46339 -8.40918,10.53086 -3.04342,2.51812 -5.60022,4.13681 -11.90663,7.80632 -1.27637,0.74257 -1.9052,1.12884 -2.66467,1.58314 l -13.08717,11.17199 7.35972,20.59222 9.07709,-4.9332 c -0.82143,-4.7032 3.35195,-8.08804 7.54826,-7.82052 0.10372,-0.0932 0.15034,-0.12475 0.26209,-0.22599 0.0667,-0.0605 0.0682,-0.0674 0.1353,-0.12828 0.36786,-0.33331 0.60986,-0.52173 0.91378,-0.78791 0.30136,-1.74466 1.13563,-3.28646 2.40543,-4.3701 1.33578,-1.14016 3.05324,-1.76636 4.82752,-1.73758 0.32125,-0.33998 0.64522,-0.70028 0.93917,-0.96236 0.44493,-2.5972 2.25722,-4.63067 4.85209,-5.73003 0.94593,-0.40066 1.97143,-0.61165 3.00419,-0.7277 0.2125,-0.16786 0.4432,-0.35853 0.64798,-0.51186 0.41137,-1.93662 1.39862,-3.70965 2.94831,-4.9904 1.39191,-1.15069 3.06555,-1.79946 4.72372,-1.69493 0.40233,0.0253 0.79062,0.0961 1.16098,0.20524 l 11.26056,-11.69358 -13.87311,-16.08937 z"
       id="path3522" /><path
       style="opacity:1;fill:#b8b8b8;stroke:#000000;stroke-width:4.28192711;stroke-linejoin:round;image-rendering:auto"
       inkscape:connector-curvature="0"
       d="m 284.77332,609.954 c 0,0 13.34808,15.48047 -64.05427,82.22085 L 207.37097,676.69438 284.77332,609.954 Z"
       id="path3524" /><path
       style="opacity:1;fill:#f0f0f0;stroke:#000000;stroke-width:2.19269252;stroke-linejoin:round;image-rendering:auto"
       inkscape:connector-curvature="0"
       d="m 284.77332,609.954 c 0,0 -14.46101,30.18116 -68.48713,77.07983 l 4.51073,5.23132 c 0,0 77.32448,-66.83068 63.9764,-82.31115 z"
       id="path3526" /><path
       style="opacity:1;fill:#5e3f30;stroke:#000000;stroke-width:2.19269252;stroke-linecap:round;stroke-linejoin:round;image-rendering:auto"
       inkscape:connector-curvature="0"
       d="m 201.88553,666.81293 26.69616,30.96095 -7.74023,6.67404 -26.69616,-30.96095 7.74023,-6.67404 z"
       id="path3528" /></g></svg>
